<svg width="24" height="24" viewBox="0 0 24 24" fill="none" xmlns="http://www.w3.org/2000/svg">
<g filter="url(#filter0_d_437_235)">
<path d="M7.99999 7.14995C8.47999 6.96995 9.42999 7.07995 9.67999 7.61995C9.92999 8.15995 10.08 8.85995 10.09 8.68995C10.0709 8.17325 10.1145 7.65613 10.22 7.14995C10.3311 6.82577 10.5858 6.5711 10.91 6.45995C11.2073 6.36592 11.523 6.34533 11.83 6.39995C12.1404 6.46385 12.4153 6.64238 12.6 6.89995C12.8339 7.48308 12.9659 8.1021 12.99 8.72995C13.0149 8.19421 13.1056 7.66355 13.26 7.14995C13.4271 6.9145 13.6711 6.74474 13.95 6.66995C14.2806 6.60951 14.6194 6.60951 14.95 6.66995C15.2214 6.76001 15.4587 6.93101 15.63 7.15995C15.8424 7.6901 15.9706 8.2502 16.01 8.81995C16.01 8.95995 16.08 8.42995 16.3 8.07995C16.4767 7.55528 17.0453 7.27322 17.57 7.44995C18.0947 7.62668 18.3767 8.19528 18.2 8.71995C18.2 9.36995 18.2 9.33995 18.2 9.77995C18.2 10.22 18.2 10.61 18.2 10.98C18.164 11.5652 18.0837 12.1468 17.96 12.72C17.7864 13.2273 17.5442 13.7084 17.24 14.15C16.7546 14.69 16.3534 15.3002 16.05 15.96C15.976 16.288 15.9424 16.6238 15.95 16.96C15.949 17.2706 15.9893 17.58 16.07 17.88C15.6612 17.9236 15.2488 17.9236 14.84 17.88C14.45 17.82 13.97 17.04 13.84 16.8C13.7757 16.6711 13.644 16.5897 13.5 16.5897C13.356 16.5897 13.2243 16.6711 13.16 16.8C12.94 17.18 12.45 17.87 12.16 17.91C11.49 17.99 10.1 17.91 9.01999 17.91C9.01999 17.91 9.20999 16.91 8.78999 16.55C8.36999 16.19 7.95999 15.7699 7.64999 15.49L6.81999 14.57C6.23469 14.0266 5.80638 13.3358 5.57999 12.57C5.36999 11.63 5.38999 11.18 5.57999 10.8C5.77378 10.4862 6.07639 10.2548 6.42999 10.15C6.72376 10.0967 7.02618 10.1173 7.30999 10.21C7.50626 10.2921 7.67589 10.4271 7.79999 10.6C8.02999 10.91 8.10999 11.06 8.00999 10.72C7.90999 10.38 7.68999 10.13 7.57999 9.71995C7.36585 9.23575 7.23728 8.71808 7.19999 8.18995C7.24098 7.71612 7.57182 7.31751 8.02999 7.18995" fill="white"/>
<path fill-rule="evenodd" clip-rule="evenodd" d="M7.99999 7.14995C8.47999 6.96995 9.42999 7.07995 9.67999 7.61995C9.92999 8.15995 10.08 8.85995 10.09 8.68995C10.0709 8.17325 10.1145 7.65613 10.22 7.14995C10.3311 6.82577 10.5858 6.5711 10.91 6.45995C11.2073 6.36592 11.523 6.34533 11.83 6.39995C12.1404 6.46385 12.4153 6.64238 12.6 6.89995C12.8339 7.48308 12.9659 8.1021 12.99 8.72995C13.0149 8.19421 13.1056 7.66355 13.26 7.14995C13.4271 6.9145 13.6711 6.74474 13.95 6.66995C14.2806 6.60951 14.6194 6.60951 14.95 6.66995C15.2214 6.76001 15.4587 6.93101 15.63 7.15995C15.8424 7.6901 15.9706 8.2502 16.01 8.81995C16.01 8.95995 16.08 8.42995 16.3 8.07995C16.4767 7.55528 17.0453 7.27322 17.57 7.44995C18.0947 7.62668 18.3767 8.19528 18.2 8.71995C18.2 9.36995 18.2 9.33995 18.2 9.77995C18.2 10.22 18.2 10.61 18.2 10.98C18.164 11.5652 18.0837 12.1468 17.96 12.72C17.7864 13.2273 17.5442 13.7084 17.24 14.15C16.7546 14.69 16.3534 15.3002 16.05 15.96C15.976 16.288 15.9424 16.6238 15.95 16.96C15.949 17.2706 15.9893 17.58 16.07 17.88C15.6612 17.9236 15.2488 17.9236 14.84 17.88C14.45 17.82 13.97 17.04 13.84 16.8C13.7757 16.6711 13.644 16.5897 13.5 16.5897C13.356 16.5897 13.2243 16.6711 13.16 16.8C12.94 17.18 12.45 17.87 12.16 17.91C11.49 17.99 10.1 17.91 9.01999 17.91C9.01999 17.91 9.20999 16.91 8.78999 16.55C8.36999 16.19 7.95999 15.77 7.64999 15.49L6.81999 14.57C6.23469 14.0266 5.80638 13.3358 5.57999 12.57C5.36999 11.63 5.38999 11.18 5.57999 10.8C5.77378 10.4862 6.07639 10.2548 6.42999 10.15C6.72376 10.0967 7.02618 10.1173 7.30999 10.21C7.50626 10.2921 7.67589 10.4271 7.79999 10.6C8.02999 10.91 8.10999 11.06 8.00999 10.72C7.90999 10.38 7.68999 10.13 7.57999 9.71995C7.36585 9.23575 7.23728 8.71808 7.19999 8.18995C7.22044 7.70919 7.54056 7.29303 7.99999 7.14995Z" stroke="#171717" stroke-width="0.75" stroke-linejoin="round"/>
<path d="M15.75 14.8259V11.3741C15.75 11.1675 15.5821 11 15.375 11C15.1679 11 15 11.1675 15 11.3741V14.8259C15 15.0325 15.1679 15.2 15.375 15.2C15.5821 15.2 15.75 15.0325 15.75 14.8259Z" fill="#171717"/>
<path d="M13.77 14.8246L13.75 11.3711C13.7488 11.165 13.5799 10.9988 13.3728 11C13.1657 11.0012 12.9988 11.1693 13 11.3754L13.02 14.8289C13.0212 15.035 13.1901 15.2012 13.3972 15.2C13.6043 15.1988 13.7712 15.0307 13.77 14.8246Z" fill="#171717"/>
<path d="M11 11.3799L11.02 14.8245C11.0212 15.0331 11.1901 15.2012 11.3972 15.2C11.6043 15.1988 11.7712 15.0287 11.77 14.8201L11.75 11.3755C11.7488 11.1669 11.5799 10.9988 11.3728 11C11.1657 11.0012 10.9988 11.1713 11 11.3799Z" fill="#171717"/>
</g>
<defs>
<filter id="filter0_d_437_235" x="3.0549" y="4.99512" width="17.5729" height="16.3254" filterUnits="userSpaceOnUse" color-interpolation-filters="sRGB">
<feFlood flood-opacity="0" result="BackgroundImageFix"/>
<feColorMatrix in="SourceAlpha" type="matrix" values="0 0 0 0 0 0 0 0 0 0 0 0 0 0 0 0 0 0 127 0" result="hardAlpha"/>
<feOffset dy="1"/>
<feGaussianBlur stdDeviation="1"/>
<feColorMatrix type="matrix" values="0 0 0 0 0.211765 0 0 0 0 0.219608 0 0 0 0 0.227451 0 0 0 0.48 0"/>
<feBlend mode="normal" in2="BackgroundImageFix" result="effect1_dropShadow_437_235"/>
<feBlend mode="normal" in="SourceGraphic" in2="effect1_dropShadow_437_235" result="shape"/>
</filter>
</defs>
</svg>
