<svg width="24" height="24" viewBox="0 0 24 24" fill="none" xmlns="http://www.w3.org/2000/svg">
<g filter="url(#filter0_d_437_228)">
<path d="M8.38001 12.2701C8.28001 11.9001 8.18001 11.4201 7.97001 10.7201C7.76001 10.0201 7.63001 9.86006 7.50001 9.49006C7.37001 9.12006 7.20001 8.77006 7.00001 8.31006C6.81681 7.84012 6.66318 7.35918 6.54001 6.87006C6.45677 6.45786 6.55919 6.02992 6.82001 5.70006C7.17887 5.34988 7.69669 5.21662 8.18001 5.35006C8.55866 5.51565 8.87908 5.79079 9.10001 6.14006C9.39505 6.61173 9.63654 7.11484 9.82001 7.64006C10.1018 8.35969 10.3062 9.10722 10.43 9.87006L10.52 10.3201C10.52 10.3201 10.52 9.20006 10.52 9.16006C10.52 8.16006 10.46 7.34006 10.52 6.22006C10.52 6.09006 10.58 5.63006 10.6 5.50006C10.6259 5.07002 10.8821 4.68754 11.27 4.50006C11.7153 4.30027 12.2247 4.30027 12.67 4.50006C13.0686 4.67849 13.3347 5.06407 13.36 5.50006C13.36 5.61006 13.45 6.50006 13.45 6.61006C13.45 7.61006 13.45 8.25006 13.45 8.78006C13.45 9.01006 13.45 10.4101 13.45 10.2501C13.4736 8.93052 13.5872 7.61413 13.79 6.31006C13.9085 5.9015 14.196 5.56307 14.58 5.38006C15.0549 5.193 15.5945 5.28549 15.98 5.62006C16.2682 5.93635 16.4378 6.34275 16.46 6.77006C16.46 7.18006 16.46 7.67006 16.46 8.02006C16.46 8.89006 16.46 9.34006 16.46 10.1401C16.46 10.1401 16.46 10.4401 16.46 10.3201C16.55 10.0401 16.65 9.78006 16.73 9.58006C16.81 9.38006 16.97 8.97006 17.09 8.72006C17.2121 8.48172 17.3491 8.25127 17.5 8.03006C17.6568 7.77579 17.8919 7.57928 18.17 7.47006C18.4205 7.37324 18.6993 7.38121 18.9439 7.49219C19.1884 7.60316 19.378 7.8078 19.47 8.06006C19.5295 8.42431 19.5295 8.79581 19.47 9.16006C19.4033 9.71949 19.2862 10.2717 19.12 10.8101C18.99 11.2601 18.85 12.0401 18.78 12.4101C18.71 12.7801 18.55 13.7901 18.42 14.2301C18.2275 14.755 17.9615 15.2499 17.63 15.7001C17.1448 16.2403 16.7437 16.8505 16.44 17.5101C16.3653 17.8379 16.3317 18.1739 16.34 18.5101C16.3384 18.8207 16.3788 19.1302 16.46 19.4301C16.0512 19.4737 15.6389 19.4737 15.23 19.4301C14.84 19.3701 14.36 18.5901 14.23 18.3501C14.1657 18.2212 14.034 18.1398 13.89 18.1398C13.746 18.1398 13.6143 18.2212 13.55 18.3501C13.32 18.7301 12.84 19.4201 12.5 19.4601C11.83 19.5401 10.45 19.4601 9.36001 19.4601C9.36001 19.4601 9.55001 18.4601 9.13001 18.1001C8.71001 17.7401 8.30001 17.3201 7.99001 17.0401L7.16001 16.1201C6.88001 15.7601 6.53001 15.0301 5.92001 14.1201C5.57001 13.6201 4.92001 13.0301 4.64001 12.5401C4.40493 12.1424 4.33664 11.6679 4.45001 11.2201C4.61981 10.6254 5.21067 10.2545 5.82001 10.3601C6.28351 10.3906 6.72193 10.5815 7.06001 10.9001C7.32772 11.1317 7.57837 11.3823 7.81001 11.6501C7.97001 11.8401 8.01001 11.9301 8.19001 12.1601C8.37001 12.3901 8.49001 12.6201 8.40001 12.2801" fill="white"/>
<path d="M8.38001 12.2701C8.28001 11.9001 8.18001 11.4201 7.97001 10.7201C7.76001 10.0201 7.63001 9.86006 7.50001 9.49006C7.37001 9.12006 7.20001 8.77006 7.00001 8.31006C6.81681 7.84012 6.66318 7.35918 6.54001 6.87006C6.45677 6.45786 6.55919 6.02992 6.82001 5.70006C7.17887 5.34988 7.69669 5.21662 8.18001 5.35006C8.55866 5.51565 8.87908 5.79079 9.10001 6.14006C9.39505 6.61173 9.63654 7.11484 9.82001 7.64006C10.1018 8.35969 10.3062 9.10722 10.43 9.87006L10.52 10.3201C10.52 10.3201 10.52 9.20006 10.52 9.16006C10.52 8.16006 10.46 7.34006 10.52 6.22006C10.52 6.09006 10.58 5.63006 10.6 5.50006C10.6259 5.07002 10.8821 4.68754 11.27 4.50006C11.7153 4.30027 12.2247 4.30027 12.67 4.50006C13.0686 4.67849 13.3347 5.06407 13.36 5.50006C13.36 5.61006 13.45 6.50006 13.45 6.61006C13.45 7.61006 13.45 8.25006 13.45 8.78006C13.45 9.01006 13.45 10.4101 13.45 10.2501C13.4736 8.93052 13.5872 7.61413 13.79 6.31006C13.9085 5.9015 14.196 5.56307 14.58 5.38006C15.0549 5.193 15.5945 5.28549 15.98 5.62006C16.2682 5.93635 16.4378 6.34275 16.46 6.77006C16.46 7.18006 16.46 7.67006 16.46 8.02006C16.46 8.89006 16.46 9.34006 16.46 10.1401C16.46 10.1401 16.46 10.4401 16.46 10.3201C16.55 10.0401 16.65 9.78006 16.73 9.58006C16.81 9.38006 16.97 8.97006 17.09 8.72006C17.2121 8.48172 17.3491 8.25127 17.5 8.03006C17.6568 7.77579 17.8919 7.57928 18.17 7.47006C18.4205 7.37324 18.6993 7.38121 18.9439 7.49219C19.1884 7.60316 19.378 7.8078 19.47 8.06006C19.5295 8.42431 19.5295 8.79581 19.47 9.16006C19.4033 9.71949 19.2862 10.2717 19.12 10.8101C18.99 11.2601 18.85 12.0401 18.78 12.4101C18.71 12.7801 18.55 13.7901 18.42 14.2301C18.2275 14.755 17.9615 15.2499 17.63 15.7001C17.1448 16.2403 16.7437 16.8505 16.44 17.5101C16.3653 17.8379 16.3317 18.1739 16.34 18.5101C16.3384 18.8207 16.3788 19.1302 16.46 19.4301C16.0512 19.4737 15.6389 19.4737 15.23 19.4301C14.84 19.3701 14.36 18.5901 14.23 18.3501C14.1657 18.2212 14.034 18.1398 13.89 18.1398C13.746 18.1398 13.6143 18.2212 13.55 18.3501C13.32 18.7301 12.84 19.4201 12.5 19.4601C11.83 19.5401 10.45 19.4601 9.36001 19.4601C9.36001 19.4601 9.55001 18.4601 9.13001 18.1001C8.71001 17.7401 8.30001 17.3201 7.99001 17.0401L7.16001 16.1201C6.88001 15.7601 6.53001 15.0301 5.92001 14.1201C5.57001 13.6201 4.92001 13.0301 4.64001 12.5401C4.40493 12.1424 4.33664 11.6679 4.45001 11.2201C4.61981 10.6254 5.21067 10.2545 5.82001 10.3601C6.28351 10.3906 6.72193 10.5815 7.06001 10.9001C7.32772 11.1317 7.57837 11.3823 7.81001 11.6501C7.97001 11.8401 8.01001 11.9301 8.19001 12.1601C8.37001 12.3901 8.49001 12.6201 8.40001 12.2801" stroke="#171717" stroke-width="0.75" stroke-linecap="round" stroke-linejoin="round"/>
<path d="M15.75 16.431V12.9792C15.75 12.7726 15.5821 12.6051 15.375 12.6051C15.1679 12.6051 15 12.7726 15 12.9792V16.431C15 16.6376 15.1679 16.8051 15.375 16.8051C15.5821 16.8051 15.75 16.6376 15.75 16.431Z" fill="#171717"/>
<path d="M13.76 16.4308L13.75 12.9772C13.7494 12.7711 13.581 12.6045 13.3739 12.6051C13.1668 12.6057 12.9994 12.7733 13 12.9794L13.01 16.433C13.0106 16.6391 13.179 16.8057 13.3861 16.8051C13.5932 16.8045 13.7606 16.6369 13.76 16.4308Z" fill="#171717"/>
<path d="M11.005 12.98L11.025 16.4246C11.0262 16.6332 11.1951 16.8013 11.4022 16.8001C11.6093 16.7989 11.7762 16.6288 11.775 16.4202L11.755 12.9756C11.7538 12.767 11.5849 12.5989 11.3778 12.6001C11.1707 12.6013 11.0038 12.7714 11.005 12.98Z" fill="#171717"/>
</g>
<defs>
<filter id="filter0_d_437_228" x="2.02148" y="2.97522" width="19.8682" height="19.8954" filterUnits="userSpaceOnUse" color-interpolation-filters="sRGB">
<feFlood flood-opacity="0" result="BackgroundImageFix"/>
<feColorMatrix in="SourceAlpha" type="matrix" values="0 0 0 0 0 0 0 0 0 0 0 0 0 0 0 0 0 0 127 0" result="hardAlpha"/>
<feOffset dy="1"/>
<feGaussianBlur stdDeviation="1"/>
<feColorMatrix type="matrix" values="0 0 0 0 0.211765 0 0 0 0 0.219608 0 0 0 0 0.227451 0 0 0 0.48 0"/>
<feBlend mode="normal" in2="BackgroundImageFix" result="effect1_dropShadow_437_228"/>
<feBlend mode="normal" in="SourceGraphic" in2="effect1_dropShadow_437_228" result="shape"/>
</filter>
</defs>
</svg>
