<svg width="24" height="24" viewBox="0 0 24 24" fill="none" xmlns="http://www.w3.org/2000/svg">
<g filter="url(#filter0_d_437_257)">
<path d="M8.67516 5.09926L8.72214 5.06388C9.67072 4.39218 10.7995 4.02154 11.9145 4.00214C13.3262 3.90945 14.7078 4.43905 15.6247 5.3855C16.5731 6.18526 17.0767 7.39397 16.98 8.54667C16.9829 9.41671 16.7021 10.264 16.1545 10.9926C15.7612 11.4741 15.3041 11.8996 14.8501 12.2166L14.3063 12.6575C14.1798 12.7565 14.0832 12.8885 14.0439 12.9903C13.9841 13.1349 13.9912 13.3701 14 13.5644V14.61L10 14.61L9.9823 13.6774C9.93591 12.9906 9.97403 12.3006 10.1112 11.5522C10.2091 11.1694 10.4087 10.8488 10.7014 10.5452C10.9 10.3391 11.0477 10.2165 11.5204 9.84511L12.1175 9.37446C12.2766 9.25737 12.4204 9.12067 12.4974 9.03144C12.5996 8.88353 12.6601 8.71081 12.6703 8.57531C12.6734 8.44952 12.6317 8.32673 12.5103 8.17279C12.3901 8.00075 12.1851 7.9087 11.9153 7.93846C11.6606 7.95256 11.4209 8.06346 11.2731 8.21797C11.0911 8.42623 10.9873 8.69137 10.9796 8.96783L10.9526 9.93999H7.05822L6.98333 9.02123C6.86048 7.51399 7.49451 6.0442 8.67516 5.09926Z" fill="white"/>
<path d="M9.30001 5.87996C10.0848 5.32428 11.0186 5.01764 11.98 4.99996C13.1 4.92642 14.1961 5.3466 14.98 6.14996C15.6815 6.74145 16.0539 7.63539 15.98 8.54996C15.9822 9.20249 15.7715 9.83794 15.38 10.36C15.0442 10.771 14.654 11.1343 14.22 11.44L13.69 11.87C13.4182 12.0827 13.2105 12.3665 13.09 12.69C13.0264 12.8798 12.9858 13.2986 13 13.61H11C10.9591 13.0048 10.9727 12.3969 11.08 11.8C11.19 11.37 11.58 11.07 12.14 10.63L12.71 10.18C12.9369 10.013 13.1419 9.81817 13.32 9.59996C13.5245 9.30415 13.6454 8.9587 13.67 8.59996C13.679 8.23684 13.5585 7.88237 13.33 7.59996C12.9989 7.12611 12.4341 6.87255 11.86 6.93996C11.3506 6.96815 10.8713 7.18995 10.52 7.55996C10.1851 7.94323 9.99418 8.43119 9.98001 8.93996H7.98001C7.88759 7.79675 8.35318 6.67932 9.23001 5.93996" fill="#171717"/>
<path d="M14 14V18H10V14H14Z" fill="white"/>
<path d="M13 15H11V17H13V15Z" fill="#171717"/>
</g>
<defs>
<filter id="filter0_d_437_257" x="4.96826" y="2.9917" width="14.0235" height="18.0083" filterUnits="userSpaceOnUse" color-interpolation-filters="sRGB">
<feFlood flood-opacity="0" result="BackgroundImageFix"/>
<feColorMatrix in="SourceAlpha" type="matrix" values="0 0 0 0 0 0 0 0 0 0 0 0 0 0 0 0 0 0 127 0" result="hardAlpha"/>
<feOffset dy="1"/>
<feGaussianBlur stdDeviation="1"/>
<feColorMatrix type="matrix" values="0 0 0 0 0.211765 0 0 0 0 0.219608 0 0 0 0 0.227451 0 0 0 0.48 0"/>
<feBlend mode="normal" in2="BackgroundImageFix" result="effect1_dropShadow_437_257"/>
<feBlend mode="normal" in="SourceGraphic" in2="effect1_dropShadow_437_257" result="shape"/>
</filter>
</defs>
</svg>
