<svg width="32" height="32" viewBox="0 0 32 32" fill="none" xmlns="http://www.w3.org/2000/svg">
<path d="M9.23811 7.25458C9.17397 7.26374 9.10525 7.27291 9.04112 7.28207C8.39976 7.35995 7.82253 7.59817 7.30028 7.97382C7.19033 8.0517 7.08955 8.13416 6.97502 8.2212C6.96586 8.1983 6.95669 8.17539 6.95669 8.15707C6.93837 8.03338 6.92004 7.9051 6.89714 7.78141C6.86507 7.57068 6.7597 7.47906 6.54897 7.47906H6.02214C5.70604 7.47906 5.64648 7.53861 5.64648 7.85471V17.4431C5.64648 17.4889 5.64648 17.5347 5.65107 17.5805C5.66023 17.7179 5.74269 17.805 5.87554 17.8096C6.19622 17.8141 6.52148 17.8141 6.84216 17.8096C6.97502 17.8096 7.05748 17.7179 7.07122 17.5805C7.0758 17.5347 7.0758 17.4889 7.0758 17.4431V14.1263C7.1262 14.1675 7.15368 14.1904 7.17659 14.2134C7.99661 14.8959 8.94033 15.1204 9.97109 14.9188C10.9056 14.7356 11.5562 14.163 11.9776 13.32C12.2983 12.6832 12.4312 12.0052 12.4495 11.2997C12.4724 10.5164 12.3945 9.74673 12.0784 9.01832C11.689 8.12042 11.0431 7.52945 10.0673 7.32788C9.9207 7.29581 9.76952 7.28207 9.61834 7.25916C9.49007 7.25458 9.36638 7.25458 9.23811 7.25458ZM7.06664 9.17408C7.06664 9.10537 7.08497 9.06414 7.14452 9.02291C7.77214 8.5877 8.46389 8.35864 9.23353 8.41819C9.91612 8.46859 10.475 8.80301 10.7682 9.60471C10.9469 10.0949 10.9927 10.6034 10.9927 11.1165C10.9927 11.5929 10.956 12.0602 10.8094 12.5183C10.4979 13.4941 9.78326 13.8652 8.85787 13.824C8.21651 13.7965 7.65761 13.5491 7.14452 13.1872C7.08955 13.1459 7.06664 13.1093 7.06664 13.036C7.07122 12.3901 7.06664 11.7487 7.06664 11.1027C7.06664 10.4614 7.07122 9.82003 7.06664 9.17408ZM16.4901 7.25458C16.4443 7.25916 16.3984 7.26832 16.3572 7.27291C15.9083 7.29581 15.4685 7.35079 15.0333 7.46073C14.7538 7.53403 14.4835 7.63482 14.2132 7.72644C14.0483 7.78141 13.9659 7.90052 13.9704 8.07919C13.975 8.23037 13.9659 8.38154 13.9704 8.53272C13.975 8.75262 14.0666 8.81217 14.282 8.7572C14.6393 8.66558 14.9966 8.56479 15.3585 8.49607C15.922 8.39071 16.4901 8.3449 17.0627 8.43194C17.3605 8.47775 17.6399 8.56479 17.8323 8.81675C18.0019 9.03665 18.066 9.29777 18.0751 9.56806C18.0889 9.9483 18.0843 10.3285 18.0889 10.7088C18.0889 10.7271 18.0843 10.75 18.0797 10.7729C18.0568 10.7683 18.0385 10.7729 18.0202 10.7683C17.5392 10.6538 17.0536 10.5713 16.5542 10.5438C16.0365 10.5164 15.5234 10.5484 15.0287 10.7225C14.4377 10.9287 13.9613 11.286 13.6818 11.8632C13.4665 12.3122 13.4344 12.7886 13.5032 13.2696C13.5948 13.911 13.9155 14.4058 14.4835 14.7219C15.0287 15.0242 15.6197 15.0609 16.2198 14.9692C16.9115 14.8639 17.5254 14.5707 18.066 14.1263C18.0843 14.108 18.1072 14.0942 18.1393 14.0759C18.1668 14.25 18.1897 14.4149 18.2217 14.5798C18.2492 14.7219 18.3363 14.8135 18.4691 14.8181C18.7165 14.8226 18.9685 14.8226 19.2159 14.8181C19.3395 14.8135 19.422 14.731 19.4358 14.6027C19.4403 14.5615 19.4403 14.5157 19.4403 14.4745V9.61846C19.4403 9.42147 19.4312 9.22448 19.3991 9.02749C19.3121 8.43652 19.0601 7.95092 18.5287 7.63482C18.2217 7.45157 17.8827 7.35995 17.53 7.30955C17.3651 7.28665 17.2001 7.27291 17.0352 7.25C16.8566 7.25458 16.6733 7.25458 16.4901 7.25458ZM18.0935 13.1047C18.0935 13.1643 18.0751 13.2055 18.0248 13.2421C17.5117 13.6132 16.9482 13.8606 16.3114 13.9247C16.0503 13.9522 15.7892 13.9431 15.5418 13.8423C15.2532 13.7277 15.0653 13.5262 14.9737 13.233C14.8821 12.9398 14.8821 12.6374 14.9691 12.3442C15.0837 11.964 15.3539 11.7487 15.7204 11.6296C16.0915 11.5105 16.4763 11.4921 16.8566 11.5288C17.2414 11.5609 17.617 11.6342 18.0018 11.6846C18.0751 11.6937 18.0981 11.7304 18.0981 11.8037C18.0935 12.0236 18.0981 12.2389 18.0981 12.4588C18.0935 12.6741 18.0889 12.8894 18.0935 13.1047ZM23.9482 13.3887C23.3572 11.7533 22.7662 10.1132 22.1753 8.47775C22.0837 8.21662 21.9829 7.96008 21.8867 7.70353C21.8363 7.57068 21.7401 7.48364 21.5935 7.48364C21.2453 7.47906 20.8971 7.47448 20.5444 7.47906C20.4299 7.47906 20.3749 7.57068 20.3978 7.68521C20.4207 7.78141 20.4482 7.87304 20.4848 7.96466C21.3827 10.1865 22.2852 12.413 23.1923 14.6302C23.2702 14.8181 23.2885 14.9784 23.2015 15.1708C23.0503 15.5052 22.9312 15.858 22.7754 16.1924C22.638 16.4902 22.4089 16.7147 22.0791 16.8017C21.8454 16.8658 21.6118 16.875 21.3736 16.8521C21.259 16.8429 21.1445 16.8154 21.03 16.8063C20.8742 16.7971 20.7964 16.8658 20.7918 17.0262C20.7872 17.1774 20.7872 17.3285 20.7918 17.4797C20.7964 17.7317 20.8834 17.8462 21.1308 17.8874C21.3873 17.9332 21.6484 17.9745 21.905 17.9791C22.6884 17.9974 23.3114 17.6813 23.7145 16.9987C23.8749 16.7284 24.0215 16.4444 24.136 16.1558C25.2217 13.4162 26.2937 10.6721 27.3703 7.92801C27.4024 7.84555 27.4299 7.76309 27.4436 7.67605C27.4619 7.54777 27.4024 7.47448 27.2741 7.47448C26.9717 7.4699 26.6648 7.47448 26.3625 7.47448C26.1929 7.47448 26.0738 7.54777 26.0097 7.7127C25.9868 7.77683 25.9593 7.83639 25.9364 7.90052C25.405 9.42605 24.8736 10.9516 24.3422 12.4817C24.2276 12.8115 24.1085 13.1459 23.9894 13.4987C23.9711 13.4483 23.9619 13.4208 23.9482 13.3887Z" fill="#353E47"/>
<path d="M2.44437 19.0599C2.23822 18.95 2.10537 18.982 2 19.1744V19.2661C2.06414 19.3531 2.11911 19.4539 2.20157 19.5272C4.17147 21.2863 6.39332 22.6149 8.87173 23.5128C10.072 23.948 11.2997 24.2641 12.555 24.4702C13.32 24.5939 14.0897 24.681 14.8639 24.7131L14.8773 24.7134C15.0334 24.7179 15.1937 24.7225 15.3541 24.7314C15.3907 24.7314 15.4319 24.7405 15.4686 24.7451H16.4352C16.4719 24.7405 16.5131 24.7314 16.5497 24.7314C17.3652 24.7131 18.1806 24.6306 18.9869 24.5115C20.1551 24.3374 21.3004 24.0671 22.4274 23.7052C24.0491 23.1784 25.5838 22.4774 26.9902 21.5108C27.1414 21.4055 27.3017 21.3001 27.43 21.1718C27.6544 20.9473 27.5491 20.6175 27.2421 20.535C27.0955 20.4984 26.9581 20.535 26.8253 20.59C24.4247 21.5979 21.928 22.2438 19.3442 22.5507C18.5517 22.6424 17.7546 22.7065 16.9575 22.7248C15.5007 22.7615 14.0484 22.679 12.6054 22.4866C11.6296 22.3583 10.6675 22.1751 9.71008 21.946C7.68521 21.4559 5.73822 20.7595 3.87369 19.825C3.38809 19.5822 2.92081 19.3165 2.44437 19.0599Z" fill="#F29000"/>
<path d="M29.5831 18.6522C29.7801 18.7163 29.9542 18.8034 30 19.0324V19.825C29.9679 19.9899 29.9404 20.1594 29.9038 20.3243C29.7022 21.2543 29.3586 22.1201 28.7723 22.8714C28.5982 23.0913 28.392 23.2883 28.1904 23.4853C28.1355 23.5403 28.0484 23.5815 27.9705 23.5998C27.8377 23.6319 27.7598 23.5449 27.7827 23.412C27.7919 23.3662 27.8102 23.3204 27.8285 23.2746L27.8521 23.2145C28.1101 22.5562 28.3701 21.8931 28.5524 21.2085C28.6486 20.8603 28.731 20.5076 28.7127 20.1411C28.7035 19.9028 28.5982 19.7288 28.3645 19.6646C28.1492 19.6051 27.9247 19.5547 27.7048 19.5409C27.1826 19.4997 26.6558 19.5318 26.1335 19.5822C25.7762 19.6188 25.4234 19.66 25.0661 19.6967C25.034 19.7013 24.9974 19.7013 24.9653 19.7013C24.8966 19.7059 24.8187 19.6875 24.8004 19.6188C24.7821 19.5638 24.7912 19.486 24.8233 19.4356C24.8645 19.3714 24.9287 19.321 24.9928 19.2752C25.5471 18.895 26.1702 18.6843 26.8253 18.5606C27.4208 18.4506 28.0209 18.4231 28.6211 18.4735C28.9463 18.501 29.2716 18.5468 29.5831 18.6522Z" fill="#F29000"/>
</svg>
