<svg width="32" height="32" viewBox="0 0 32 32" fill="none" xmlns="http://www.w3.org/2000/svg">
<path d="M7.11872 11.732C6.79059 12.1203 6.26559 12.4266 5.74059 12.3828C5.67497 11.8578 5.932 11.3 6.23278 10.9555C6.5609 10.5562 7.13512 10.2719 7.59997 10.25C7.65465 10.7969 7.44137 11.3328 7.11872 11.732ZM7.5945 12.4867C6.83434 12.443 6.18356 12.9188 5.82262 12.9188C5.45622 12.9188 4.90387 12.5086 4.30231 12.5195C3.52028 12.5305 2.79293 12.9734 2.39372 13.6789C1.5734 15.0898 2.18043 17.1789 2.9734 18.3273C3.36168 18.8961 3.82653 19.5195 4.43903 19.4977C5.01872 19.4758 5.2484 19.1203 5.9484 19.1203C6.65387 19.1203 6.85622 19.4977 7.46872 19.4867C8.10309 19.4758 8.50231 18.918 8.89059 18.3492C9.33356 17.7039 9.51403 17.075 9.52497 17.0422C9.51403 17.0312 8.29997 16.5664 8.28903 15.1664C8.27809 13.9961 9.24606 13.4383 9.28981 13.4055C8.74294 12.5961 7.88981 12.5086 7.5945 12.4867ZM11.9859 10.9008V19.4266H13.3093V16.5117H15.1414C16.8148 16.5117 17.9906 15.3633 17.9906 13.7008C17.9906 12.0383 16.8367 10.9008 15.1851 10.9008H11.9859ZM13.3093 12.0164H14.8351C15.9836 12.0164 16.6398 12.6289 16.6398 13.7062C16.6398 14.7836 15.9836 15.4016 14.8297 15.4016H13.3093V12.0164ZM20.4078 19.4922C21.239 19.4922 22.0101 19.0711 22.3601 18.4039H22.3875V19.4266H23.6125V15.1828C23.6125 13.9523 22.6281 13.1594 21.1132 13.1594C19.7078 13.1594 18.6687 13.9633 18.6304 15.068H19.8226C19.9211 14.543 20.4078 14.1984 21.075 14.1984C21.8843 14.1984 22.3382 14.5758 22.3382 15.2703V15.7406L20.6867 15.8391C19.15 15.932 18.3187 16.5609 18.3187 17.6547C18.3187 18.7594 19.1773 19.4922 20.4078 19.4922ZM20.7632 18.4805C20.0578 18.4805 19.6093 18.1414 19.6093 17.6219C19.6093 17.0859 20.0414 16.7742 20.8672 16.725L22.3382 16.632V17.1133C22.3382 17.9117 21.6601 18.4805 20.7632 18.4805ZM25.2476 21.7453C26.5382 21.7453 27.1453 21.2531 27.6757 19.7602L30 13.2414H28.6547L27.0961 18.2781H27.0687L25.5101 13.2414H24.1265L26.3687 19.4484L26.2484 19.8258C26.0461 20.4656 25.7179 20.7117 25.1328 20.7117C25.0289 20.7117 24.8265 20.7008 24.7445 20.6898V21.7125C24.8211 21.7344 25.1492 21.7453 25.2476 21.7453Z" fill="black"/>
</svg>
