<svg width="32" height="32" viewBox="0 0 32 32" fill="none" xmlns="http://www.w3.org/2000/svg">
<path d="M20.2437 2C23.0438 2 24.4438 2 25.975 2.48125C26.7879 2.77862 27.5261 3.24976 28.1382 3.86182C28.7502 4.47388 29.2214 5.2121 29.5188 6.025C30 7.55625 30 8.95625 30 11.7606V20.235C30 23.0438 30 24.4525 29.5188 25.9662C29.2214 26.7791 28.7502 27.5174 28.1382 28.1294C27.5261 28.7415 26.7879 29.2126 25.975 29.51C24.4438 30 23.0438 30 20.2437 30H11.7562C8.9475 30 7.53875 30 6.025 29.5188C5.2121 29.2214 4.47388 28.7502 3.86182 28.1382C3.24976 27.5261 2.77862 26.7879 2.48125 25.975C2 24.4438 2 23.0437 2 20.2394V11.7562C2 8.9475 2 7.53875 2.48125 6.025C2.77862 5.2121 3.24976 4.47388 3.86182 3.86182C4.47388 3.24976 5.2121 2.77862 6.025 2.48125C7.55625 2 8.95625 2 11.7562 2H20.2437Z" fill="#00D632"/>
<path d="M20.5806 12.4125C20.7993 12.6313 21.1624 12.6313 21.3681 12.4125L22.4618 11.275C22.6937 11.0563 22.6806 10.6625 22.4356 10.4263C21.5761 9.67766 20.5769 9.10667 19.4956 8.74627L19.8412 7.08377C19.9156 6.72064 19.6443 6.37939 19.2812 6.37939H17.1637C17.0313 6.38081 16.9035 6.42765 16.8015 6.51208C16.6996 6.5965 16.6297 6.71338 16.6037 6.84314L16.2974 8.32189C13.4799 8.46627 11.0912 9.89689 11.0912 12.8281C11.0912 15.3656 13.0643 16.455 15.1512 17.2031C17.1243 17.9556 18.1699 18.2356 18.1699 19.2944C18.1699 20.3838 17.1287 21.0225 15.5887 21.0225C14.1887 21.0225 12.7187 20.5544 11.5812 19.4125C11.5284 19.3596 11.4656 19.3176 11.3965 19.289C11.3275 19.2603 11.2534 19.2456 11.1787 19.2456C11.1039 19.2456 11.0299 19.2603 10.9608 19.289C10.8917 19.3176 10.829 19.3596 10.7762 19.4125L9.59493 20.5938C9.48379 20.7053 9.42139 20.8563 9.42139 21.0138C9.42139 21.1712 9.48379 21.3222 9.59493 21.4338C10.5137 22.3394 11.6774 22.9956 13.0039 23.3588L12.6802 24.9206C12.6058 25.2838 12.8727 25.6206 13.2358 25.625L15.3577 25.6425C15.4915 25.6431 15.6214 25.5972 15.7252 25.5126C15.8289 25.428 15.9001 25.31 15.9264 25.1788L16.2327 23.6956C19.6224 23.4681 21.6874 21.6 21.6874 18.8744C21.6874 16.3631 19.6312 15.3044 17.1374 14.4425C15.7112 13.9131 14.4774 13.55 14.4774 12.4606C14.4774 11.4019 15.6281 10.9819 16.7831 10.9819C18.2531 10.9819 19.6662 11.59 20.5893 12.4213L20.5806 12.4125Z" fill="white"/>
</svg>
