<svg width="32" height="32" viewBox="0 0 32 32" fill="none" xmlns="http://www.w3.org/2000/svg">
<path fill-rule="evenodd" clip-rule="evenodd" d="M7.83184 2H24.167C27.3893 2 30 4.80896 30 8.27424V23.7258C30 27.191 27.3893 30 24.1682 30H7.83184C4.61072 30 2 27.191 2 23.7258V8.27424C2 4.80896 4.61072 2 7.83184 2Z" fill="#0052FF"/>
<path fill-rule="evenodd" clip-rule="evenodd" d="M15.9999 6.05566C21.4924 6.05566 25.9444 10.5077 25.9444 16.0001C25.9444 21.4926 21.4924 25.9446 15.9999 25.9446C10.5074 25.9446 6.05542 21.4926 6.05542 16.0001C6.05542 10.5077 10.5074 6.05566 15.9999 6.05566Z" fill="white"/>
<path fill-rule="evenodd" clip-rule="evenodd" d="M13.5507 12.8213H18.4484C18.8516 12.8213 19.1775 13.173 19.1775 13.6053V18.3933C19.1775 18.8267 18.8505 19.1773 18.4484 19.1773H13.5507C13.1475 19.1773 12.8215 18.8256 12.8215 18.3933V13.6053C12.8215 13.173 13.1486 12.8213 13.5507 12.8213Z" fill="#0052FF"/>
</svg>
