<svg width="32" height="32" viewBox="0 0 32 32" fill="none" xmlns="http://www.w3.org/2000/svg">
<path d="M27.5753 8.39852L16.8256 2.22006C16.5747 2.07589 16.2901 2 16.0004 2C15.7107 2 15.4262 2.07589 15.1753 2.22006L4.42525 8.39852C4.17434 8.54273 3.96599 8.75016 3.82114 8.99996C3.67629 9.24976 3.60006 9.53311 3.6001 9.82154V22.1785C3.6001 22.7656 3.9146 23.3081 4.42525 23.6015L15.1749 29.7799C15.4258 29.9241 15.7104 30 16.0001 30C16.2898 30 16.5744 29.9241 16.8252 29.7799L27.5749 23.6015C27.8259 23.4573 28.0342 23.2498 28.1791 23C28.3239 22.7502 28.4001 22.4669 28.4001 22.1785V9.82154C28.4003 9.53312 28.3241 9.24975 28.1793 8.99994C28.0345 8.75013 27.8262 8.5427 27.5753 8.39852ZM8.95319 12.9108V20.0505L5.25073 22.1785V9.82154L16.0004 3.64308V7.91182L9.77867 11.4877C9.52772 11.6319 9.31932 11.8394 9.17442 12.0892C9.02952 12.339 8.95322 12.6223 8.95319 12.9108ZM15.1749 14.577C14.924 14.7212 14.7157 14.9286 14.5708 15.1784C14.426 15.4282 14.3498 15.7116 14.3498 16V23.1148L10.6038 25.2677V12.9108L21.3535 6.73231V11.026L15.1749 14.577ZM26.7498 22.1785L16.0004 28.3569V16L26.7501 9.82154L26.7498 22.1785Z" fill="url(#paint0_linear_214_610)"/>
<defs>
<linearGradient id="paint0_linear_214_610" x1="4.41832" y1="27.5302" x2="27.8789" y2="3.96406" gradientUnits="userSpaceOnUse">
<stop stop-color="#F3904A"/>
<stop offset="0.999" stop-color="#AA437F"/>
</linearGradient>
</defs>
</svg>
