<svg width="32" height="32" viewBox="0 0 32 32" fill="none" xmlns="http://www.w3.org/2000/svg">
<path d="M15.2347 15.862V19.0782H14.1851V11.124H16.9142C17.579 11.124 18.2088 11.3661 18.6986 11.8157C19.1885 12.2307 19.4334 12.8532 19.4334 13.5103C19.4334 14.1674 19.1885 14.7553 18.6986 15.2049C18.2088 15.6545 17.614 15.8965 16.9142 15.8965L15.2347 15.862ZM15.2347 12.0924V14.859H16.9842C17.3691 14.859 17.7539 14.7207 17.9989 14.444C18.5587 13.9253 18.5587 13.0607 18.0339 12.5419L17.9989 12.5074C17.7189 12.2307 17.3691 12.0578 16.9842 12.0924H15.2347Z" fill="#5F6368"/>
<path d="M21.8476 13.4766C22.6174 13.4766 23.2122 13.6841 23.667 14.0991C24.1219 14.5141 24.3318 15.0674 24.3318 15.7591V19.0791H23.3521V18.3182H23.3171C22.8973 18.9407 22.3024 19.252 21.6027 19.252C21.0079 19.252 20.483 19.0791 20.0632 18.7332C19.6783 18.3874 19.4333 17.9032 19.4333 17.3845C19.4333 16.8312 19.6433 16.3816 20.0632 16.0357C20.483 15.6899 21.0778 15.5516 21.7776 15.5516C22.4074 15.5516 22.8973 15.6553 23.2821 15.8974V15.6553C23.2821 15.3095 23.1422 14.9636 22.8623 14.7561C22.5824 14.5141 22.2325 14.3757 21.8476 14.3757C21.2528 14.3757 20.7979 14.6178 20.483 15.102L19.5733 14.5486C20.1331 13.8224 20.8679 13.4766 21.8476 13.4766ZM20.518 17.4191C20.518 17.6957 20.658 17.9378 20.8679 18.0762C21.1128 18.2491 21.3927 18.3528 21.6726 18.3528C22.0925 18.3528 22.5124 18.1799 22.8273 17.8687C23.1772 17.5574 23.3521 17.177 23.3521 16.762C23.0372 16.5199 22.5824 16.3816 21.9875 16.3816C21.5677 16.3816 21.2178 16.4853 20.9379 16.6928C20.658 16.8657 20.518 17.1078 20.518 17.4191Z" fill="#5F6368"/>
<path d="M30.0001 13.6494L26.5362 21.4999H25.4865L26.7811 18.7678L24.5068 13.684H25.6265L27.271 17.5919H27.306L28.9155 13.684H30.0001V13.6494Z" fill="#5F6368"/>
<path d="M11.071 15.1711C11.071 14.8598 11.0361 14.5486 11.0011 14.2373H6.62744V16.0011H9.11166C9.00669 16.5544 8.69179 17.0731 8.20195 17.3844V18.5256H9.70647C10.5812 17.7302 11.071 16.5544 11.071 15.1711Z" fill="#4285F4"/>
<path d="M6.62748 19.6321C7.88709 19.6321 8.93676 19.2171 9.70652 18.5254L8.20199 17.3841C7.78212 17.6608 7.25729 17.8337 6.62748 17.8337C5.43786 17.8337 4.38819 17.0383 4.0383 15.9316H2.49878V17.1075C3.30353 18.6637 4.87803 19.6321 6.62748 19.6321Z" fill="#34A853"/>
<path d="M4.03875 15.9318C3.82875 15.3784 3.82875 14.7559 4.03875 14.168V12.9922H2.49875C1.83375 14.2718 1.83375 15.7934 2.49875 17.1076L4.03875 15.9318Z" fill="#FBBC04"/>
<path d="M6.62741 12.3002C7.2922 12.3002 7.922 12.5423 8.41185 12.9919L9.74143 11.6777C8.90169 10.9169 7.78204 10.4673 6.6624 10.5019C4.91294 10.5019 3.30345 11.4702 2.53369 13.0265L4.07321 14.2023C4.38811 13.0956 5.43778 12.3002 6.62741 12.3002Z" fill="#EA4335"/>
</svg>
