<svg width="32" height="32" viewBox="0 0 32 32" fill="none" xmlns="http://www.w3.org/2000/svg">
<path d="M28.6054 3L17.6799 11.1276L19.7003 6.33243L28.6054 3Z" fill="#E2761B"/>
<path fill-rule="evenodd" clip-rule="evenodd" d="M28.6536 2.97347C28.6667 2.99748 28.6601 3.02746 28.6382 3.04378L17.7127 11.1714C17.6928 11.1862 17.6655 11.1858 17.646 11.1706C17.6265 11.1553 17.6197 11.1288 17.6293 11.106L19.6497 6.31085C19.6556 6.29693 19.6669 6.28604 19.6811 6.28075L28.5862 2.94831C28.6118 2.93873 28.6405 2.94946 28.6536 2.97347ZM19.7417 6.37529L17.8087 10.9631L28.2617 3.18696L19.7417 6.37529Z" fill="#E2761B"/>
<path d="M3.38341 3L14.2211 11.2046L12.2995 6.33243L3.38341 3ZM24.6744 21.8398L21.7646 26.305L27.9905 28.0207L29.7803 21.9388L24.6744 21.8398ZM2.23047 21.9388L4.00929 28.0207L10.2352 26.305L7.32537 21.8398L2.23047 21.9388Z" fill="#E4761B"/>
<path fill-rule="evenodd" clip-rule="evenodd" d="M3.33527 2.97328C3.34841 2.9494 3.37707 2.93877 3.4026 2.94831L12.3187 6.28074C12.3333 6.28618 12.3448 6.29755 12.3505 6.31202L14.2721 11.1842C14.2811 11.2071 14.2738 11.2332 14.2542 11.2481C14.2346 11.2629 14.2075 11.263 14.1879 11.2481L3.35024 3.04351C3.32851 3.02706 3.32214 2.99716 3.33527 2.97328ZM3.71595 3.18265L14.0982 11.0425L12.2574 6.37504L3.71595 3.18265ZM7.32428 21.7846C7.34321 21.7843 7.361 21.7937 7.37134 21.8096L10.2811 26.2748C10.2907 26.2895 10.2927 26.3078 10.2865 26.3242C10.2803 26.3406 10.2666 26.353 10.2497 26.3577L4.02385 28.0734C3.99494 28.0814 3.96499 28.0647 3.95657 28.0359L2.17775 21.9539C2.17294 21.9375 2.17607 21.9198 2.18619 21.906C2.19631 21.8922 2.21228 21.8839 2.22937 21.8836L7.32428 21.7846ZM24.6284 21.8096C24.6387 21.7937 24.6565 21.7843 24.6754 21.7846L29.7813 21.8836C29.7984 21.8839 29.8144 21.8922 29.8245 21.906C29.8346 21.9199 29.8377 21.9376 29.8329 21.954L28.0431 28.036C28.0347 28.0647 28.0047 28.0814 27.9759 28.0734L21.75 26.3577C21.7331 26.353 21.7194 26.3406 21.7132 26.3242C21.707 26.3078 21.709 26.2895 21.7186 26.2748L24.6284 21.8096ZM2.30329 21.992L4.04678 27.9532L10.1481 26.2718L7.29597 21.895L2.30329 21.992ZM24.7037 21.895L21.8516 26.2718L27.953 27.9532L29.7073 21.992L24.7037 21.895Z" fill="#E4761B"/>
<path d="M9.88383 14.2941L8.14893 16.9227L14.3309 17.1977L14.1113 10.5438L9.88383 14.2941ZM22.105 14.2941L17.8227 10.4668L17.6799 17.1977L23.8509 16.9227L22.105 14.2941ZM10.2352 26.3041L13.9466 24.4894L10.7403 21.9818L10.2352 26.3041ZM18.0423 24.4894L21.7646 26.3041L21.2485 21.9818L18.0423 24.4894Z" fill="#E4761B"/>
<path fill-rule="evenodd" clip-rule="evenodd" d="M17.8007 10.4167C17.8204 10.4081 17.8432 10.4118 17.8592 10.4261L22.1522 14.263L22.1507 14.264L23.8966 16.8925C23.9075 16.909 23.9088 16.9301 23.8998 16.9478C23.8908 16.9654 23.8731 16.9769 23.8533 16.9778L17.6823 17.2527C17.6671 17.2534 17.6524 17.2478 17.6415 17.2371C17.6306 17.2265 17.6247 17.2119 17.625 17.1967L17.7677 10.4658C17.7682 10.4444 17.7811 10.4252 17.8007 10.4167ZM17.875 10.5874L17.736 17.1404L23.7514 16.8724L22.0631 14.3306L17.875 10.5874ZM14.1329 10.4936C14.1525 10.502 14.1654 10.5209 14.1661 10.5422L14.3857 17.1961C14.3862 17.2113 14.3803 17.2262 14.3695 17.2369C14.3586 17.2477 14.3437 17.2534 14.3284 17.2527L8.14646 16.9778C8.12671 16.9769 8.10896 16.9655 8.09998 16.9478C8.09101 16.9302 8.09219 16.9092 8.10307 16.8927L9.83798 14.2641C9.84062 14.2601 9.84377 14.2565 9.84736 14.2533L14.0748 10.5029C14.0907 10.4888 14.1134 10.4852 14.1329 10.4936ZM9.92564 14.3306L8.24804 16.8724L14.274 17.1404L14.0602 10.6627L9.92564 14.3306ZM10.7191 21.9314C10.7374 21.9237 10.7585 21.9266 10.7741 21.9388L13.9804 24.4464C13.9953 24.458 14.0031 24.4765 14.0011 24.4953C13.9992 24.5142 13.9877 24.5306 13.9707 24.5389L10.2593 26.3536C10.2412 26.3625 10.2198 26.3607 10.2034 26.3491C10.1871 26.3375 10.1783 26.3179 10.1806 26.2979L10.6857 21.9757C10.688 21.956 10.7008 21.939 10.7191 21.9314ZM21.2696 21.9314C21.2879 21.939 21.3007 21.9559 21.303 21.9755L21.8191 26.2978C21.8215 26.3178 21.8128 26.3374 21.7964 26.3491C21.78 26.3607 21.7586 26.3625 21.7405 26.3537L18.0182 24.539C18.0012 24.5307 17.9896 24.5142 17.9876 24.4954C17.9856 24.4766 17.9935 24.458 18.0084 24.4464L21.2147 21.9388C21.2303 21.9266 21.2513 21.9237 21.2696 21.9314ZM10.7835 22.0855L10.3014 26.2108L13.8436 24.4788L10.7835 22.0855ZM18.1452 24.4788L21.6981 26.2108L21.2055 22.0853L18.1452 24.4788Z" fill="#E4761B"/>
<path d="M21.7645 26.3049L18.0422 24.4902L18.3386 26.9208L18.3057 27.9436L21.7645 26.3049ZM10.2351 26.3049L13.6939 27.9436L13.672 26.9208L13.9465 24.4902L10.2351 26.3049Z" fill="#D7C1B3"/>
<path fill-rule="evenodd" clip-rule="evenodd" d="M18.0103 24.4457C18.0267 24.4341 18.0481 24.4323 18.0662 24.4411L21.7886 26.2558C21.8075 26.265 21.8195 26.2843 21.8194 26.3054C21.8193 26.3266 21.8071 26.3457 21.788 26.3548L18.3292 27.9935C18.3119 28.0017 18.2916 28.0003 18.2756 27.9898C18.2596 27.9793 18.2502 27.9612 18.2508 27.9421L18.2836 26.9235L17.9876 24.4971C17.9852 24.4771 17.9939 24.4574 18.0103 24.4457ZM13.9781 24.4456C13.9945 24.4571 14.0033 24.4767 14.001 24.4966L13.7269 26.9235L13.7488 27.9427C13.7492 27.9617 13.7397 27.9796 13.7238 27.9899C13.7078 28.0003 13.6876 28.0016 13.6704 27.9935L10.2116 26.3548C10.1925 26.3457 10.1803 26.3266 10.1802 26.3055C10.18 26.2844 10.192 26.2651 10.211 26.2558L13.9223 24.4411C13.9403 24.4323 13.9617 24.434 13.9781 24.4456ZM18.1089 24.5841L18.3941 26.9228L18.3634 27.8557L21.6378 26.3044L18.1089 24.5841ZM10.3617 26.3044L13.6371 27.8562L13.6169 26.9148L13.8807 24.5837L10.3617 26.3044Z" fill="#D7C1B3"/>
<path d="M13.7491 20.3771L10.6526 19.4642L12.8377 18.4634L13.7491 20.3771ZM18.24 20.3771L19.1514 18.4634L21.3475 19.4642L18.24 20.3771Z" fill="#233447"/>
<path fill-rule="evenodd" clip-rule="evenodd" d="M12.8148 18.4132C12.8421 18.4007 12.8743 18.4124 12.8872 18.4395L13.7986 20.3532C13.8079 20.3727 13.8049 20.396 13.7908 20.4124C13.7767 20.4289 13.7543 20.4356 13.7335 20.4295L10.637 19.5166C10.6151 19.5101 10.5994 19.4907 10.5978 19.4679C10.5962 19.445 10.6089 19.4236 10.6297 19.414L12.8148 18.4132ZM19.1018 18.4395C19.1147 18.4125 19.1469 18.4007 19.1742 18.4132L21.3702 19.414C21.3911 19.4235 21.4039 19.445 21.4022 19.4678C21.4006 19.4907 21.3849 19.5102 21.3629 19.5166L18.2555 20.4295C18.2347 20.4356 18.2123 20.4289 18.1982 20.4124C18.1842 20.3959 18.1811 20.3727 18.1904 20.3532L19.1018 18.4395ZM19.1777 18.5355L18.3424 20.2895L21.1906 19.4528L19.1777 18.5355ZM10.8088 19.4528L13.6466 20.2893L12.8113 18.5356L10.8088 19.4528Z" fill="#233447"/>
<path d="M10.2352 26.3052L10.7623 21.84L7.32544 21.939L10.2352 26.3052ZM21.2376 21.84L21.7647 26.3052L24.6745 21.939L21.2376 21.84ZM23.8509 16.9238L17.68 17.1988L18.2509 20.3772L19.1623 18.4636L21.3584 19.4644L23.8509 16.9238ZM10.6525 19.4644L12.8486 18.4636L13.749 20.3772L14.3309 17.1988L8.14897 16.9238L10.6525 19.4644Z" fill="#CD6116"/>
<path fill-rule="evenodd" clip-rule="evenodd" d="M8.09878 16.9012C8.10795 16.8806 8.12882 16.8677 8.15138 16.8687L14.3333 17.1437C14.3492 17.1444 14.364 17.1519 14.3738 17.1643C14.3837 17.1767 14.3878 17.1928 14.3849 17.2084L13.8029 20.3869C13.7986 20.4103 13.7797 20.4283 13.756 20.4314C13.7324 20.4345 13.7094 20.4219 13.6993 20.4003L12.822 18.5357L10.6752 19.5141C10.6543 19.5236 10.6295 19.5191 10.6134 19.5027L8.10983 16.9621C8.09399 16.946 8.0896 16.9219 8.09878 16.9012ZM23.901 16.9012C23.9102 16.9218 23.9059 16.9459 23.8901 16.962L21.3975 19.5026C21.3814 19.5191 21.3566 19.5237 21.3356 19.5141L19.1886 18.5356L18.3005 20.4006C18.2902 20.4221 18.2672 20.4346 18.2436 20.4314C18.22 20.4282 18.2011 20.4101 18.1969 20.3867L17.6259 17.2082C17.6231 17.1926 17.6271 17.1766 17.637 17.1642C17.6469 17.1519 17.6617 17.1444 17.6775 17.1437L23.8485 16.8687C23.871 16.8677 23.8918 16.8806 23.901 16.9012ZM8.28619 16.9846L10.6646 19.3982L12.8258 18.4133C12.8531 18.4009 12.8854 18.4127 12.8982 18.4399L13.7258 20.1987L14.2656 17.2506L8.28619 16.9846ZM17.7451 17.2506L18.2747 20.1992L19.1127 18.4397C19.1256 18.4126 19.1578 18.4009 19.185 18.4133L21.3461 19.3982L23.7141 16.9846L17.7451 17.2506ZM10.8028 21.8027C10.8135 21.8144 10.8187 21.8303 10.8168 21.8462L10.2897 26.3114C10.287 26.3342 10.2704 26.353 10.248 26.3583C10.2256 26.3637 10.2023 26.3545 10.1895 26.3354L7.27972 21.9691C7.26865 21.9525 7.26747 21.9312 7.27664 21.9135C7.28581 21.8958 7.30388 21.8844 7.32383 21.8838L10.7607 21.7848C10.7766 21.7844 10.792 21.7909 10.8028 21.8027ZM21.1971 21.8027C21.2078 21.7909 21.2232 21.7844 21.2391 21.7848L24.676 21.8838C24.696 21.8844 24.714 21.8958 24.7232 21.9135C24.7324 21.9312 24.7312 21.9525 24.7201 21.9691L21.8103 26.3354C21.7976 26.3545 21.7742 26.3637 21.7518 26.3583C21.7295 26.353 21.7128 26.3342 21.7101 26.3114L21.183 21.8462C21.1812 21.8303 21.1863 21.8144 21.1971 21.8027ZM7.42606 21.9907L10.1982 26.1504L10.7003 21.8964L7.42606 21.9907ZM21.2995 21.8964L21.8017 26.1504L24.5738 21.9907L21.2995 21.8964Z" fill="#CD6116"/>
<path d="M8.14893 16.9238L10.7403 21.983L10.6525 19.4644L8.14893 16.9238ZM21.3583 19.4644L21.2485 21.983L23.8509 16.9238L21.3583 19.4644ZM14.3309 17.1988L13.7489 20.3772L14.4736 24.1276L14.6383 19.1894L14.3309 17.1988ZM17.6799 17.1988L17.3834 19.1784L17.5152 24.1276L18.2509 20.3772L17.6799 17.1988Z" fill="#E4751F"/>
<path fill-rule="evenodd" clip-rule="evenodd" d="M23.883 16.879C23.905 16.8949 23.9121 16.9245 23.8997 16.9487L21.2973 22.0078C21.2855 22.0307 21.2594 22.0424 21.2344 22.0358C21.2095 22.0291 21.1925 22.0061 21.1937 21.9803L21.3035 19.4617C21.3041 19.4482 21.3096 19.4353 21.3191 19.4257L23.8117 16.8851C23.8307 16.8657 23.861 16.8632 23.883 16.879ZM8.11675 16.8791C8.13872 16.8632 8.16898 16.8657 8.18801 16.885L10.6915 19.4256C10.7012 19.4354 10.7068 19.4485 10.7073 19.4622L10.7951 21.9808C10.796 22.0065 10.779 22.0294 10.7541 22.0358C10.7292 22.0423 10.7031 22.0306 10.6914 22.0077L8.10004 16.9486C8.08768 16.9245 8.09478 16.8949 8.11675 16.8791ZM8.36079 17.2168L10.6768 21.7384L10.5983 19.4874L8.36079 17.2168ZM21.4122 19.4875L21.3143 21.7348L23.6363 17.2206L21.4122 19.4875ZM14.3316 17.1436C14.3584 17.144 14.381 17.1636 14.3851 17.1901L14.6942 19.191L14.5285 24.1292C14.5275 24.1571 14.5058 24.1799 14.4779 24.1821C14.4501 24.1843 14.425 24.1652 14.4197 24.1377L13.695 20.3874C13.6937 20.3807 13.6937 20.3738 13.6949 20.3671L14.2769 17.1886C14.2817 17.1623 14.3048 17.1432 14.3316 17.1436ZM17.6791 17.1436C17.706 17.1432 17.7292 17.1623 17.7339 17.1888L18.3049 20.3673C18.3061 20.374 18.3061 20.3808 18.3047 20.3875L17.5691 24.1379C17.5637 24.1654 17.5385 24.1844 17.5106 24.182C17.4827 24.1797 17.461 24.1568 17.4603 24.1288L17.3283 19.1699L17.6256 17.1904C17.6296 17.1638 17.6522 17.144 17.6791 17.1436ZM13.8048 20.3767L14.435 23.6381L14.5833 19.1925L14.3263 17.5284L13.8048 20.3767ZM17.6848 17.5364L17.4384 19.1815L17.5568 23.6297L18.195 20.3765L17.6848 17.5364Z" fill="#E4751F"/>
<path d="M18.251 20.3767L17.5153 24.1271L18.0424 24.49L21.2487 21.9824L21.3585 19.4639L18.251 20.3767ZM10.6526 19.4639L10.7404 21.9824L13.9467 24.49L14.4738 24.1271L13.7491 20.3767L10.6526 19.4639Z" fill="#F6851B"/>
<path fill-rule="evenodd" clip-rule="evenodd" d="M21.3923 19.4204C21.4062 19.4313 21.4141 19.4483 21.4133 19.466L21.3035 21.9846C21.3028 22.0006 21.2951 22.0155 21.2825 22.0254L18.0762 24.533C18.0573 24.5478 18.031 24.5486 18.0112 24.535L17.4842 24.172C17.4662 24.1596 17.4572 24.1377 17.4614 24.1162L18.1971 20.3659C18.2011 20.3458 18.2159 20.3295 18.2355 20.3238L21.343 19.4109C21.36 19.4059 21.3783 19.4094 21.3923 19.4204ZM10.6189 19.4202C10.6329 19.4094 10.6512 19.4059 10.6681 19.4109L13.7646 20.3238C13.7842 20.3296 13.799 20.3459 13.8029 20.366L14.5276 24.1164C14.5318 24.1378 14.5228 24.1596 14.5049 24.172L13.9778 24.535C13.9581 24.5486 13.9318 24.5478 13.9129 24.533L10.7066 22.0254C10.6938 22.0154 10.6861 22.0003 10.6855 21.9841L10.5977 19.4655C10.5971 19.4479 10.605 19.431 10.6189 19.4202ZM18.2984 20.4197L17.5761 24.102L18.0403 24.4217L21.1949 21.9545L21.3002 19.5379L18.2984 20.4197ZM10.7101 19.5378L13.7015 20.4197L14.413 24.102L13.9487 24.4217L10.7944 21.9547L10.7101 19.5378Z" fill="#F6851B"/>
<path d="M18.3057 27.9434L18.3386 26.9206L18.0641 26.6786H13.9245L13.672 26.9206L13.6939 27.9434L10.2351 26.3047L11.443 27.2945L13.8916 28.9992H18.0971L20.5567 27.2945L21.7645 26.3047L18.3057 27.9434Z" fill="#C0AD9E"/>
<path fill-rule="evenodd" clip-rule="evenodd" d="M10.1887 26.2755C10.2035 26.2521 10.2335 26.2434 10.2586 26.2553L13.6371 27.856L13.6171 26.922C13.6167 26.9066 13.6229 26.8918 13.634 26.8812L13.8865 26.6392C13.8967 26.6294 13.9103 26.6239 13.9245 26.6239H18.0641C18.0775 26.6239 18.0904 26.6288 18.1004 26.6377L18.3749 26.8796C18.3872 26.8904 18.394 26.9062 18.3935 26.9226L18.3634 27.8555L21.741 26.2553C21.7661 26.2434 21.796 26.2521 21.8109 26.2755C21.8257 26.299 21.8207 26.3298 21.7993 26.3474L20.588 27.34L18.1283 29.0446C18.1191 29.0509 18.1082 29.0544 18.097 29.0544H13.8916C13.8803 29.0544 13.8694 29.0509 13.8602 29.0445L11.408 27.3373L10.2003 26.3474C10.1788 26.3298 10.1739 26.299 10.1887 26.2755ZM10.6161 26.5462L11.4761 27.2509L13.9088 28.9445H18.0799L20.5236 27.2509L21.3835 26.5462L18.3292 27.9932C18.3119 28.0014 18.2916 28 18.2756 27.9895C18.2596 27.9791 18.2502 27.961 18.2508 27.9419L18.2829 26.9449L18.0434 26.7337H13.9465L13.7274 26.9438L13.7488 27.9425C13.7492 27.9615 13.7397 27.9794 13.7238 27.9897C13.7078 28.0001 13.6876 28.0014 13.6704 27.9932L10.6161 26.5462Z" fill="#C0AD9E"/>
<path d="M18.0423 24.4904L17.5153 24.1274H14.4737L13.9466 24.4904L13.6721 26.921L13.9247 26.679H18.0643L18.3388 26.921L18.0423 24.4904Z" fill="#161616"/>
<path fill-rule="evenodd" clip-rule="evenodd" d="M14.4425 24.0824C14.4517 24.0761 14.4625 24.0728 14.4737 24.0728H17.5152C17.5263 24.0728 17.5372 24.0761 17.5464 24.0824L18.0734 24.4454C18.0864 24.4543 18.0949 24.4683 18.0968 24.4839L18.3933 26.9145C18.396 26.9372 18.3845 26.9591 18.3643 26.9698C18.3442 26.9804 18.3196 26.9774 18.3025 26.9624L18.0435 26.7341H13.9467L13.7101 26.9608C13.6934 26.9768 13.6685 26.9806 13.6477 26.9704C13.627 26.9601 13.6149 26.938 13.6175 26.915L13.892 24.4844C13.8938 24.4686 13.9024 24.4544 13.9155 24.4454L14.4425 24.0824ZM14.4907 24.1826L13.9983 24.5216L13.7437 26.7766L13.8867 26.6396C13.8969 26.6298 13.9105 26.6243 13.9246 26.6243H18.0642C18.0776 26.6243 18.0905 26.6292 18.1006 26.638L18.2668 26.7846L17.9908 24.5218L17.4982 24.1826H14.4907Z" fill="#161616"/>
<path d="M29.0667 11.6555L30 7.16829L28.6055 3L18.0424 10.8527L22.1051 14.2951L27.8478 15.9778L29.1216 14.493L28.5725 14.0971L29.451 13.2942L28.7702 12.7663L29.6486 12.0955L29.0667 11.6555ZM2 7.16829L2.93333 11.6555L2.34039 12.0955L3.21882 12.7663L2.54902 13.2942L3.42745 14.0971L2.87843 14.493L4.14118 15.9778L9.88392 14.2951L13.9467 10.8527L3.38353 3L2 7.16829Z" fill="#763D16"/>
<path fill-rule="evenodd" clip-rule="evenodd" d="M3.36699 2.94737C3.38379 2.94207 3.40212 2.94515 3.41626 2.95567L13.9794 10.8083C13.9928 10.8183 14.001 10.8339 14.0015 10.8506C14.002 10.8674 13.9949 10.8834 13.9821 10.8943L9.91938 14.3367C9.91353 14.3417 9.9067 14.3453 9.89933 14.3475L4.15659 16.0302C4.13579 16.0363 4.11336 16.0296 4.09932 16.0131L2.83658 14.5283C2.82665 14.5167 2.82205 14.5014 2.8239 14.4862C2.82574 14.471 2.83386 14.4572 2.84629 14.4482L3.34054 14.0918L2.51195 13.3345C2.50005 13.3236 2.49354 13.3081 2.49412 13.292C2.49471 13.2759 2.50235 13.2608 2.51501 13.2509L3.12923 12.7667L2.30704 12.1388C2.29333 12.1283 2.28534 12.112 2.28546 12.0948C2.28558 12.0775 2.2938 12.0614 2.30765 12.0511L2.87241 11.6321L1.94622 7.1792C1.94425 7.16973 1.94482 7.1599 1.94786 7.15072L3.33139 2.98243C3.33694 2.96571 3.35018 2.95267 3.36699 2.94737ZM28.6219 2.94735C28.6387 2.95262 28.6519 2.96562 28.6575 2.98231L30.052 7.1506C30.0551 7.15981 30.0557 7.16968 30.0537 7.1792L29.1275 11.6324L29.6817 12.0514C29.6954 12.0617 29.7035 12.0779 29.7035 12.095C29.7035 12.1122 29.6956 12.1284 29.6819 12.1388L28.8602 12.7664L29.4846 13.2506C29.4974 13.2605 29.5052 13.2756 29.5058 13.2918C29.5065 13.3079 29.4999 13.3236 29.488 13.3345L28.6594 14.0918L29.1537 14.4482C29.1661 14.4572 29.1742 14.471 29.1761 14.4863C29.1779 14.5015 29.1732 14.5169 29.1632 14.5285L27.8895 16.0133C27.8754 16.0296 27.8531 16.0363 27.8324 16.0302L22.0896 14.3475C22.0823 14.3453 22.0754 14.3417 22.0696 14.3367L18.0068 10.8943C17.9941 10.8834 17.9869 10.8674 17.9874 10.8506C17.988 10.8339 17.9961 10.8183 18.0096 10.8083L28.5727 2.95567C28.5868 2.94517 28.6051 2.94207 28.6219 2.94735ZM3.41169 3.08909L2.05673 7.1713L2.98706 11.6441C2.99141 11.665 2.9832 11.6866 2.96602 11.6993L2.43165 12.0958L3.25212 12.7224C3.2656 12.7327 3.27357 12.7487 3.27369 12.7656C3.27382 12.7826 3.2661 12.7987 3.25278 12.8092L2.63376 13.2971L3.46446 14.0563C3.47666 14.0675 3.48319 14.0835 3.48223 14.1C3.48128 14.1165 3.47294 14.1317 3.45954 14.1414L2.95876 14.5025L4.15989 15.9148L9.85728 14.2454L13.8584 10.8552L3.41169 3.08909ZM18.1306 10.8552L22.1317 14.2454L27.8292 15.9149L29.041 14.5024L28.5404 14.1414C28.527 14.1317 28.5187 14.1165 28.5177 14.1C28.5168 14.0835 28.5233 14.0675 28.5355 14.0563L29.3658 13.2974L28.7365 12.8095C28.7231 12.799 28.7152 12.7829 28.7153 12.7659C28.7153 12.7488 28.7233 12.7328 28.7368 12.7224L29.5579 12.0954L29.0335 11.699C29.0166 11.6863 29.0086 11.6648 29.0129 11.6441L29.9432 7.17136L28.5774 3.08898L18.1306 10.8552Z" fill="#763D16"/>
<path d="M27.8477 15.9779L22.105 14.2952L23.8509 16.9237L21.2485 21.9829L24.6744 21.9389H29.7803L27.8477 15.9779ZM9.8838 14.2952L4.14106 15.9779L2.23047 21.9389H7.32537L10.7403 21.9829L8.1489 16.9237L9.8838 14.2952ZM17.6799 17.1987L18.0422 10.8527L19.7113 6.33252H12.2995L13.9465 10.8527L14.3309 17.1987L14.4626 19.2003L14.4736 24.1275H17.5152L17.5371 19.2003L17.6799 17.1987Z" fill="#F6851B"/>
<path fill-rule="evenodd" clip-rule="evenodd" d="M12.2545 6.30076C12.2648 6.28609 12.2815 6.27734 12.2995 6.27734H19.7112C19.7292 6.27734 19.746 6.28613 19.7563 6.30086C19.7665 6.31559 19.769 6.33442 19.7627 6.35126L18.0966 10.8638L17.7347 17.2015L17.592 19.2021L17.5701 24.1275C17.5699 24.1577 17.5454 24.1821 17.5151 24.1821H14.4736C14.4433 24.1821 14.4187 24.1576 14.4187 24.1273L14.4077 19.2019L14.2761 17.202L13.8922 10.8638L12.2479 6.35104C12.2417 6.33421 12.2442 6.31544 12.2545 6.30076ZM12.3779 6.38715L13.9981 10.8337C13.9999 10.8387 14.001 10.8439 14.0013 10.8492L14.3856 17.1948L14.5176 19.1999L14.5284 24.0723H17.4605L17.4822 19.1961L17.625 17.1953L17.9874 10.8493C17.9877 10.8439 17.9888 10.8386 17.9907 10.8335L19.6324 6.38715H12.3779ZM22.0607 14.2623C22.0744 14.2438 22.0983 14.2357 22.1204 14.2422L27.8631 15.9249C27.8806 15.93 27.8943 15.9434 27.8999 15.9607L29.8325 21.9217C29.8379 21.9384 29.835 21.9567 29.8247 21.9709C29.8143 21.9851 29.7978 21.9935 29.7802 21.9935H24.6747L21.2492 22.0375C21.2299 22.0377 21.2119 22.0279 21.2018 22.0115C21.1917 21.9951 21.1908 21.9746 21.1997 21.9575L23.7873 16.927L22.0592 14.3253C22.0465 14.306 22.0471 14.2809 22.0607 14.2623ZM9.92793 14.2623C9.94162 14.2808 9.94229 14.3059 9.92959 14.3251L8.21235 16.9269L10.7891 21.9575C10.7979 21.9747 10.797 21.9952 10.7869 22.0115C10.7768 22.0279 10.7588 22.0377 10.7395 22.0375L7.32534 21.9935H2.23044C2.2129 21.9935 2.19642 21.9851 2.18609 21.9709C2.17575 21.9568 2.17281 21.9385 2.17816 21.9218L4.08875 15.9608C4.09431 15.9435 4.10811 15.93 4.12559 15.9249L9.86834 14.2422C9.89044 14.2357 9.91425 14.2437 9.92793 14.2623ZM4.18442 16.0221L2.30569 21.8837H7.32534L10.6498 21.9265L8.10001 16.9485C8.09098 16.9308 8.09214 16.9097 8.10305 16.8932L9.7554 14.3897L4.18442 16.0221ZM22.234 14.3899L23.8966 16.8931C23.9076 16.9096 23.9088 16.9309 23.8997 16.9486L21.3391 21.9265L24.6737 21.8837L29.7047 21.8837L27.8044 16.0221L22.234 14.3899Z" fill="#F6851B"/>
</svg>
