<svg width="32" height="32" viewBox="0 0 32 32" fill="none" xmlns="http://www.w3.org/2000/svg">
<path d="M29.7564 11.7925C30.0548 14.2991 29.9951 15.9702 29.9951 15.9702C29.9951 15.9702 30.0548 17.6412 29.7564 20.1478C29.3983 22.7738 28.5031 25.1013 26.8917 26.8321C25.161 28.4434 22.8334 29.3983 20.2075 29.6967C17.7009 29.9951 16.0298 29.9354 16.0298 29.9354C16.0298 29.9354 14.3588 29.9951 11.8522 29.6967C9.22624 29.3386 6.89869 28.4434 5.16795 26.8321C3.49689 25.1013 2.60168 22.7738 2.24359 20.1478C1.94519 17.6412 2.00487 15.9702 2.00487 15.9702C2.00487 15.9702 1.94519 14.2991 2.24359 11.7925C2.60168 9.16656 3.49689 6.83901 5.16795 5.10827C6.89869 3.49689 9.22624 2.542 11.8522 2.24359C14.3588 1.94519 16.0298 2.00487 16.0298 2.00487C16.0298 2.00487 17.7009 1.94519 20.2075 2.24359C22.8334 2.60168 25.161 3.49689 26.8917 5.10827C28.5031 6.83901 29.458 9.16656 29.7564 11.7925Z" fill="#1D49C2"/>
<path d="M9.76334 9.3457H22.2366C23.5496 9.3457 24.5642 10.42 24.5642 11.6733V20.2673C24.5642 21.5802 23.4899 22.5948 22.2366 22.5948H9.76334C8.45036 22.5948 7.43579 21.5206 7.43579 20.2673V11.6733C7.43579 10.42 8.51004 9.3457 9.76334 9.3457Z" fill="white"/>
<path d="M10.1811 10.5396H21.8785C22.714 10.5396 23.4302 11.2557 23.4302 12.0912V19.9094C23.4302 20.745 22.714 21.4611 21.8785 21.4611H10.1811C9.34556 21.4611 8.62939 20.745 8.62939 19.9094V12.0912C8.62939 11.196 9.34556 10.5396 10.1811 10.5396Z" fill="#81A4FF"/>
<path d="M8.62939 12.6875H23.4302V14.7763H8.62939V12.6875Z" fill="#1D49C2"/>
<path d="M8.45044 19.7899H11.0764C12.3894 19.7899 13.1055 19.0737 13.8814 17.5817C14.5976 16.0897 15.6121 13.5831 16.8654 10.1216H23.8481V21.819H8.45044V19.7899Z" fill="white"/>
</svg>
