<svg width="32" height="32" viewBox="0 0 32 32" fill="none" xmlns="http://www.w3.org/2000/svg">
<path d="M5.31003 2H26.69C28.5178 2 30 3.48218 30 5.31003V26.69C30 28.5178 28.5178 30 26.69 30H5.31003C3.48218 30 2 28.5176 2 26.6898V5.31003C2 3.48218 3.48239 2 5.31024 2H5.31003Z" fill="#3396CD"/>
<path d="M22.9002 7.69775C23.5025 8.69085 23.7728 9.71481 23.7728 11.0078C23.7728 15.1318 20.2527 20.4876 17.3957 24.2481H10.8716L8.25562 8.60118L13.9701 8.05853L15.3597 19.1917C16.6512 17.0852 18.2483 13.7752 18.2483 11.52C18.2483 10.2843 18.0366 9.44433 17.7056 8.75259L22.9002 7.69775Z" fill="white"/>
</svg>
