<svg width="32" height="32" viewBox="0 0 32 32" fill="none" xmlns="http://www.w3.org/2000/svg">
<path fill-rule="evenodd" clip-rule="evenodd" d="M10.7135 2H21.2865C23.5952 2.00721 25.8074 2.92756 27.4399 4.5601C29.0724 6.19265 29.9928 8.40479 30 10.7135V21.2865C29.9928 23.5952 29.0724 25.8074 27.4399 27.4399C25.8074 29.0724 23.5952 29.9928 21.2865 30H10.7135C8.40479 29.9928 6.19265 29.0724 4.5601 27.4399C2.92756 25.8074 2.00721 23.5952 2 21.2865V10.7135C2.00721 8.40479 2.92756 6.19265 4.5601 4.5601C6.19265 2.92756 8.40479 2.00721 10.7135 2Z" fill="#1D7AD9"/>
<path d="M15.9976 6.74414C15.2935 6.74414 14.7353 7.13835 14.7353 7.61686L15.1636 12.459C15.2092 12.7507 15.567 12.9762 15.9999 12.9762C16.4328 12.9762 16.7883 12.7484 16.8362 12.459L17.2668 7.61686C17.2668 7.13835 16.704 6.74642 15.9999 6.74642L15.9976 6.74414ZM9.02953 10.6178C8.80814 10.647 8.59726 10.73 8.41533 10.8595C8.23341 10.989 8.08597 11.161 7.98591 11.3607C7.63272 11.9714 7.69424 12.6527 8.10668 12.8919L12.5136 14.9427C12.7893 15.0452 13.163 14.8493 13.3795 14.487C13.6073 14.111 13.58 13.6895 13.3521 13.5026L9.37132 10.7135C9.26728 10.6546 9.14904 10.6254 9.02953 10.6292V10.6178ZM22.968 10.6178C22.8485 10.6141 22.7302 10.6432 22.6262 10.7021L18.6454 13.5049C18.4175 13.6917 18.4016 14.1133 18.6181 14.4893C18.8345 14.863 19.2082 15.0589 19.484 14.945L23.8909 12.8942C24.3078 12.6549 24.3671 11.9827 24.0162 11.363C23.9141 11.1639 23.7648 10.9928 23.5812 10.8649C23.3977 10.737 23.1856 10.6561 22.9634 10.6292L22.968 10.6178ZM12.6799 16.998C12.6239 16.9954 12.568 17.0047 12.5159 17.0254L8.10895 19.0898C7.69424 19.3314 7.63272 20.0013 7.98591 20.6234C8.3391 21.2454 8.95889 21.5212 9.37132 21.2819L13.3521 18.4974C13.58 18.3083 13.5982 17.8867 13.3817 17.513C13.3154 17.3785 13.2164 17.2628 13.0938 17.1765C12.9712 17.0901 12.8289 17.0358 12.6799 17.0186V16.998ZM19.3199 16.998C19.1709 17.0153 19.0286 17.0696 18.906 17.156C18.7835 17.2423 18.6844 17.358 18.6181 17.4925C18.3902 17.8662 18.4198 18.2878 18.6477 18.4769L22.6285 21.2865C23.0409 21.5143 23.6607 21.2363 24.0162 20.6279C24.3717 20.0195 24.3078 19.3359 23.8909 19.0944L19.484 17.0391C19.4318 17.0186 19.3759 17.0093 19.3199 17.0117V16.998ZM15.9976 19.026C15.567 19.026 15.2092 19.2539 15.1636 19.541L14.7353 24.3831C14.7353 24.8617 15.2958 25.2559 15.9999 25.2559C16.704 25.2559 17.2668 24.8617 17.2668 24.3831L16.8362 19.5456C16.7883 19.2539 16.4328 19.0306 15.9999 19.0306L15.9976 19.026Z" fill="#FFC220"/>
</svg>
