<svg width="32" height="32" viewBox="0 0 32 32" fill="none" xmlns="http://www.w3.org/2000/svg">
<path d="M16 30C23.732 30 30 23.732 30 16C30 8.26801 23.732 2 16 2C8.26801 2 2 8.26801 2 16C2 23.732 8.26801 30 16 30Z" fill="#6D1ED4"/>
<path d="M22.3025 23.359C22.2909 23.3465 22.2779 23.3348 22.2657 23.3223C22.2563 23.3128 22.2462 23.304 22.2375 23.2937C21.6582 22.6799 21.1892 21.9539 20.8429 21.1363C20.7888 21.0094 20.6661 20.9273 20.5305 20.9273H20.2506H19.0017H14.0509L21.9756 10.6203C22.0218 10.5594 22.0471 10.4846 22.0471 10.4076V8.399C22.0471 8.2076 21.8955 8.05287 21.7072 8.05287H18.0061H17.8603H17.4332V5.17233C17.4332 5.07773 17.3567 5 17.2629 5H17.1785H17.1165H14.7818H14.6973H14.6353C14.5415 5 14.465 5.07773 14.465 5.17233V8.05287H13.8539H13.7075H10.2768C10.0885 8.05287 9.93631 8.2076 9.93631 8.399V10.7273C9.93631 10.918 10.0885 11.0727 10.2768 11.0727H17.5501L9.67225 21.2881C9.62535 21.3489 9.6001 21.4237 9.6001 21.5015V23.601C9.6001 23.7924 9.75161 23.9471 9.93991 23.9471H14.4672V26.8269C14.4672 26.923 14.5437 27 14.6375 27H14.6973H14.7839H17.1186H17.1785H17.2651C17.3589 27 17.4354 26.923 17.4354 26.8269V23.9471H19.3393H21.7808H22.06C22.1971 23.9471 22.3205 23.8635 22.3739 23.7352C22.4266 23.6061 22.3984 23.458 22.3025 23.359Z" fill="white"/>
</svg>
