<svg width="32" height="32" viewBox="0 0 32 32" fill="none" xmlns="http://www.w3.org/2000/svg">
<path d="M30 14.444H21.812L28.904 10.35L27.346 7.65L20.256 11.746L24.348 4.654L21.65 3.096L17.56 10.186V2H14.44V10.188L10.348 3.096L7.652 4.654L11.744 11.744L4.654 7.652L3.096 10.348L10.188 14.442H2V17.556H10.186L3.096 21.65L4.654 24.35L11.744 20.256L7.65 27.346L10.35 28.904L14.442 21.812V30H17.556V21.812L21.65 28.904L24.348 27.346L20.254 20.254L27.344 24.348L28.902 21.65L21.812 17.558H29.998L30 14.444ZM16 20.236C14.8723 20.236 13.7908 19.788 12.9934 18.9906C12.196 18.1932 11.748 17.1117 11.748 15.984C11.748 14.8563 12.196 13.7748 12.9934 12.9774C13.7908 12.18 14.8723 11.732 16 11.732C17.1277 11.732 18.2092 12.18 19.0066 12.9774C19.804 13.7748 20.252 14.8563 20.252 15.984C20.252 17.1117 19.804 18.1932 19.0066 18.9906C18.2092 19.788 17.1277 20.236 16 20.236Z" fill="#625DF5"/>
</svg>
