<svg width="32" height="24" viewBox="0 0 32 24" fill="none" xmlns="http://www.w3.org/2000/svg">
<rect width="32" height="24" rx="4" fill="#004EF2"/>
<path d="M16 21C20.9706 21 25 16.9706 25 12C25 7.02944 20.9706 3 16 3C11.0294 3 7 7.02944 7 12C7 16.9706 11.0294 21 16 21Z" fill="white"/>
<path d="M19.1039 12.5852C18.8289 14.0422 17.5505 15.1439 16.0139 15.1439C14.2764 15.1439 12.8683 13.7357 12.8683 11.9983C12.8683 10.2608 14.2764 8.85264 16.0139 8.85264C17.5505 8.85264 18.8289 9.95494 19.1039 11.4113H22.2779C21.982 8.21191 19.2905 5.70703 16.0139 5.70703C12.5389 5.70703 9.72266 8.52393 9.72266 11.9983C9.72266 15.4732 12.5396 18.2895 16.0139 18.2895C19.2905 18.2895 21.982 15.7846 22.2779 12.5852H19.1039Z" fill="#004EF2"/>
</svg>
