<svg width="80" height="80" viewBox="0 0 80 80" fill="none" xmlns="http://www.w3.org/2000/svg">
<path d="M0 40C0 17.9086 17.9086 0 40 0C62.0914 0 80 17.9086 80 40C80 62.0914 62.0914 80 40 80C17.9086 80 0 62.0914 0 40Z" fill="#C0D5FF"/>
<path d="M25.8438 49L32.1836 31.5391H35.3242L41.6172 49H38.793L37.2461 44.4648H30.2031L28.6094 49H25.8438ZM30.9883 42.25H36.4844L35.4297 39.1562C35.1953 38.4375 34.9453 37.668 34.6797 36.8477C34.4141 36.0273 34.1094 35.0508 33.7656 33.918C33.4141 35.0508 33.1055 36.0273 32.8398 36.8477C32.5742 37.668 32.3203 38.4375 32.0781 39.1562L30.9883 42.25ZM40.0469 33.8242V31.5391H53.7695V33.8242H48.2266V49H45.6133V33.8242H40.0469Z" fill="#122368"/>
</svg>
