<svg width="80" height="80" viewBox="0 0 80 80" fill="none" xmlns="http://www.w3.org/2000/svg">
<path d="M0 40C0 17.9086 17.9086 0 40 0C62.0914 0 80 17.9086 80 40C80 62.0914 62.0914 80 40 80C17.9086 80 0 62.0914 0 40Z" fill="#FFECC0"/>
<path d="M28.5391 49.2812C26.4453 49.2812 24.793 48.7539 23.582 47.6992C22.3789 46.6367 21.7773 45.1836 21.7773 43.3398H24.3789C24.3867 44.4883 24.7539 45.3867 25.4805 46.0352C26.2148 46.6836 27.2344 47.0078 28.5391 47.0078C29.7266 47.0078 30.6758 46.7578 31.3867 46.2578C32.1055 45.75 32.4648 45.0703 32.4648 44.2188C32.4648 43.5469 32.207 43.0039 31.6914 42.5898C31.1836 42.168 30.3242 41.8125 29.1133 41.5234L27.2031 41.0664C25.4375 40.6445 24.1484 40.0586 23.3359 39.3086C22.5312 38.5508 22.1289 37.5664 22.1289 36.3555C22.1289 35.332 22.3867 34.4375 22.9023 33.6719C23.418 32.9062 24.1406 32.3125 25.0703 31.8906C26.0078 31.4688 27.1016 31.2578 28.3516 31.2578C30.2344 31.2578 31.7305 31.75 32.8398 32.7344C33.957 33.7188 34.543 35.0625 34.5977 36.7656H32.0781C32.0156 35.7578 31.6484 34.9688 30.9766 34.3984C30.3047 33.8203 29.418 33.5312 28.3164 33.5312C27.2617 33.5312 26.3984 33.7852 25.7266 34.293C25.0547 34.793 24.7188 35.4375 24.7188 36.2266C24.7188 36.8594 24.9766 37.375 25.4922 37.7734C26.0078 38.1641 26.8633 38.5039 28.0586 38.793L29.9453 39.2383C31.6953 39.6523 32.9844 40.25 33.8125 41.0312C34.6484 41.8125 35.0664 42.8281 35.0664 44.0781C35.0664 45.125 34.7969 46.0391 34.2578 46.8203C33.7188 47.6016 32.9609 48.207 31.9844 48.6367C31.0078 49.0664 29.8594 49.2812 28.5391 49.2812ZM40.8672 49L36.1328 31.5391H38.8398L41.4062 41.6992C41.5938 42.4492 41.7695 43.2031 41.9336 43.9609C42.0977 44.7109 42.2578 45.4648 42.4141 46.2227C42.5703 45.4648 42.7344 44.7109 42.9062 43.9609C43.0781 43.2031 43.2617 42.4492 43.457 41.6992L46.1055 31.5391H48.9531L51.5781 41.6992C51.9531 43.1836 52.3008 44.6719 52.6211 46.1641C52.7773 45.4219 52.9375 44.6797 53.1016 43.9375C53.2734 43.1875 53.4492 42.4414 53.6289 41.6992L56.1953 31.5391H58.9141L54.1562 49H51.1797L48.3086 38.3242C48.168 37.7852 48.0312 37.2344 47.8984 36.6719C47.7734 36.1016 47.6445 35.5195 47.5117 34.9258C47.3867 35.5195 47.2617 36.1016 47.1367 36.6719C47.0117 37.2344 46.875 37.7852 46.7266 38.3242L43.8789 49H40.8672Z" fill="#624C18"/>
</svg>
