<svg width="80" height="80" viewBox="0 0 80 80" fill="none" xmlns="http://www.w3.org/2000/svg">
<path d="M0 40C0 17.9086 17.9086 0 40 0C62.0914 0 80 17.9086 80 40C80 62.0914 62.0914 80 40 80C17.9086 80 0 62.0914 0 40Z" fill="#C0EAFF"/>
<path d="M22.9492 49V31.5391H34.6914V33.8242H25.5508V38.9688H34.0117V41.2305H25.5508V46.7148H34.6914V49H22.9492ZM40.4102 49L35.6758 31.5391H38.3828L40.9492 41.6992C41.1367 42.4492 41.3125 43.2031 41.4766 43.9609C41.6406 44.7109 41.8008 45.4648 41.957 46.2227C42.1133 45.4648 42.2773 44.7109 42.4492 43.9609C42.6211 43.2031 42.8047 42.4492 43 41.6992L45.6484 31.5391H48.4961L51.1211 41.6992C51.4961 43.1836 51.8438 44.6719 52.1641 46.1641C52.3203 45.4219 52.4805 44.6797 52.6445 43.9375C52.8164 43.1875 52.9922 42.4414 53.1719 41.6992L55.7383 31.5391H58.457L53.6992 49H50.7227L47.8516 38.3242C47.7109 37.7852 47.5742 37.2344 47.4414 36.6719C47.3164 36.1016 47.1875 35.5195 47.0547 34.9258C46.9297 35.5195 46.8047 36.1016 46.6797 36.6719C46.5547 37.2344 46.418 37.7852 46.2695 38.3242L43.4219 49H40.4102Z" fill="#124B68"/>
</svg>
