<svg width="80" height="80" viewBox="0 0 80 80" fill="none" xmlns="http://www.w3.org/2000/svg">
<path d="M0 40C0 17.9086 17.9086 0 40 0C62.0914 0 80 17.9086 80 40C80 62.0914 62.0914 80 40 80C17.9086 80 0 62.0914 0 40Z" fill="#FFC0C5"/>
<path d="M27.6602 49V31.5391H30.2617V46.7148H38.5234V49H27.6602ZM40.6914 49V31.5391H47.1602C49.0273 31.5391 50.5078 32.0273 51.6016 33.0039C52.6953 33.9805 53.2422 35.3047 53.2422 36.9766C53.2422 38.0938 52.9883 39.0625 52.4805 39.8828C51.9727 40.6953 51.2578 41.3242 50.3359 41.7695C49.4141 42.207 48.3281 42.4258 47.0781 42.4258H43.293V49H40.6914ZM43.293 40.1758H47.0312C48.1562 40.1758 49.043 39.8906 49.6914 39.3203C50.3477 38.7422 50.6758 37.9609 50.6758 36.9766C50.6758 35.9922 50.3477 35.2188 49.6914 34.6562C49.043 34.0859 48.1562 33.8008 47.0312 33.8008H43.293V40.1758Z" fill="#681219"/>
</svg>
