<svg width="80" height="80" viewBox="0 0 80 80" fill="none" xmlns="http://www.w3.org/2000/svg">
<path d="M0 40C0 17.9086 17.9086 0 40 0C62.0914 0 80 17.9086 80 40C80 62.0914 62.0914 80 40 80C17.9086 80 0 62.0914 0 40Z" fill="#FFECC0"/>
<path d="M30.6367 49.2461C29.0352 49.2461 27.7461 48.7852 26.7695 47.8633C25.793 46.9414 25.3047 45.6289 25.3047 43.9258V42.9062H27.8359V43.9375C27.8359 44.9219 28.0898 45.6758 28.5977 46.1992C29.1055 46.7227 29.7812 46.9844 30.625 46.9844C31.4688 46.9844 32.1445 46.7227 32.6523 46.1992C33.1602 45.6758 33.4141 44.9219 33.4141 43.9375V31.5391H36.0273V43.9492C36.0273 45.6523 35.5312 46.9609 34.5391 47.875C33.5547 48.7891 32.2539 49.2461 30.6367 49.2461ZM46.5156 49.2812C44.9688 49.2812 43.5898 48.9023 42.3789 48.1445C41.168 47.3867 40.2148 46.332 39.5195 44.9805C38.832 43.6289 38.4883 42.0625 38.4883 40.2812C38.4883 38.4922 38.832 36.9219 39.5195 35.5703C40.2148 34.2109 41.168 33.1523 42.3789 32.3945C43.5898 31.6367 44.9688 31.2578 46.5156 31.2578C48.0703 31.2578 49.4531 31.6367 50.6641 32.3945C51.875 33.1523 52.8242 34.2109 53.5117 35.5703C54.207 36.9219 54.5547 38.4922 54.5547 40.2812C54.5547 42.0625 54.207 43.6289 53.5117 44.9805C52.8242 46.332 51.875 47.3867 50.6641 48.1445C49.4531 48.9023 48.0703 49.2812 46.5156 49.2812ZM46.5156 46.9023C47.5234 46.9023 48.4375 46.6484 49.2578 46.1406C50.0781 45.625 50.7305 44.875 51.2148 43.8906C51.6992 42.8984 51.9414 41.6953 51.9414 40.2812C51.9414 38.8594 51.6992 37.6523 51.2148 36.6602C50.7305 35.668 50.0781 34.918 49.2578 34.4102C48.4375 33.8945 47.5234 33.6367 46.5156 33.6367C45.5156 33.6367 44.6055 33.8945 43.7852 34.4102C42.9648 34.918 42.3125 35.668 41.8281 36.6602C41.3438 37.6523 41.1016 38.8594 41.1016 40.2812C41.1016 41.6953 41.3438 42.8984 41.8281 43.8906C42.3125 44.875 42.9648 45.625 43.7852 46.1406C44.6055 46.6484 45.5156 46.9023 46.5156 46.9023Z" fill="#624C18"/>
</svg>
