<svg width="80" height="80" viewBox="0 0 80 80" fill="none" xmlns="http://www.w3.org/2000/svg">
<path d="M0 40C0 17.9086 17.9086 0 40 0C62.0914 0 80 17.9086 80 40C80 62.0914 62.0914 80 40 80C17.9086 80 0 62.0914 0 40Z" fill="#CAC0FF"/>
<path d="M26.5117 49V31.5391H33.1562C35.0234 31.5391 36.5039 32.0273 37.5977 33.0039C38.6914 33.9805 39.2383 35.3047 39.2383 36.9766C39.2383 38.1953 38.9258 39.2344 38.3008 40.0938C37.6758 40.9453 36.8203 41.5664 35.7344 41.957L39.5078 49H36.5781L33.0977 42.3906C33.0586 42.3906 33.0195 42.3906 32.9805 42.3906H29.1133V49H26.5117ZM29.1133 40.1758H33.0508C34.1758 40.1758 35.0586 39.8906 35.6992 39.3203C36.3477 38.7422 36.6719 37.9609 36.6719 36.9766C36.6719 35.9922 36.3477 35.2148 35.6992 34.6445C35.0508 34.0742 34.1641 33.7891 33.0391 33.7891H29.1133V40.1758ZM41.8398 49V31.5391H48.3086C50.1758 31.5391 51.6562 32.0273 52.75 33.0039C53.8438 33.9805 54.3906 35.3047 54.3906 36.9766C54.3906 38.0938 54.1367 39.0625 53.6289 39.8828C53.1211 40.6953 52.4062 41.3242 51.4844 41.7695C50.5625 42.207 49.4766 42.4258 48.2266 42.4258H44.4414V49H41.8398ZM44.4414 40.1758H48.1797C49.3047 40.1758 50.1914 39.8906 50.8398 39.3203C51.4961 38.7422 51.8242 37.9609 51.8242 36.9766C51.8242 35.9922 51.4961 35.2188 50.8398 34.6562C50.1914 34.0859 49.3047 33.8008 48.1797 33.8008H44.4414V40.1758Z" fill="#351A75"/>
</svg>
