<svg width="80" height="80" viewBox="0 0 80 80" fill="none" xmlns="http://www.w3.org/2000/svg">
<path d="M0 40C0 17.9086 17.9086 0 40 0C62.0914 0 80 17.9086 80 40C80 62.0914 62.0914 80 40 80C17.9086 80 0 62.0914 0 40Z" fill="#FFC0C5"/>
<path d="M24.9297 49V31.5391H27.8125L34.4805 42.0977C34.6836 42.4258 34.9609 42.8906 35.3125 43.4922C35.6641 44.0938 36.0156 44.7031 36.3672 45.3203C36.3438 44.6875 36.3242 44.0469 36.3086 43.3984C36.3008 42.7422 36.2969 42.2539 36.2969 41.9336V31.5391H38.9102V49H36.0039L30.0391 39.5664C29.7969 39.1836 29.4453 38.6133 28.9844 37.8555C28.5312 37.0898 28.0156 36.2109 27.4375 35.2188C27.4766 36.2422 27.5 37.125 27.5078 37.8672C27.5234 38.6016 27.5312 39.1641 27.5312 39.5547V49H24.9297ZM40.6797 49L47.0195 31.5391H50.1602L56.4531 49H53.6289L52.082 44.4648H45.0391L43.4453 49H40.6797ZM45.8242 42.25H51.3203L50.2656 39.1562C50.0312 38.4375 49.7812 37.668 49.5156 36.8477C49.25 36.0273 48.9453 35.0508 48.6016 33.918C48.25 35.0508 47.9414 36.0273 47.6758 36.8477C47.4102 37.668 47.1562 38.4375 46.9141 39.1562L45.8242 42.25Z" fill="#681219"/>
</svg>
