<svg width="80" height="80" viewBox="0 0 80 80" fill="none" xmlns="http://www.w3.org/2000/svg">
<path d="M0 40C0 17.9086 17.9086 0 40 0C62.0914 0 80 17.9086 80 40C80 62.0914 62.0914 80 40 80C17.9086 80 0 62.0914 0 40Z" fill="#EBEBEB"/>
<path d="M31.9375 49.2461C30.3359 49.2461 29.0469 48.7852 28.0703 47.8633C27.0938 46.9414 26.6055 45.6289 26.6055 43.9258V42.9062H29.1367V43.9375C29.1367 44.9219 29.3906 45.6758 29.8984 46.1992C30.4062 46.7227 31.082 46.9844 31.9258 46.9844C32.7695 46.9844 33.4453 46.7227 33.9531 46.1992C34.4609 45.6758 34.7148 44.9219 34.7148 43.9375V31.5391H37.3281V43.9492C37.3281 45.6523 36.832 46.9609 35.8398 47.875C34.8555 48.7891 33.5547 49.2461 31.9375 49.2461ZM40.4336 49V31.5391H46.9609C48.7578 31.5391 50.1562 31.957 51.1562 32.793C52.1641 33.6211 52.668 34.7344 52.668 36.1328C52.668 37.1328 52.4062 37.9453 51.8828 38.5703C51.3672 39.1953 50.6523 39.6484 49.7383 39.9297V39.9531C50.7539 40.0938 51.6094 40.5078 52.3047 41.1953C53.0078 41.8828 53.3594 42.8477 53.3594 44.0898C53.3594 45.5742 52.8398 46.7656 51.8008 47.6641C50.7695 48.5547 49.2227 49 47.1602 49H40.4336ZM43.0117 46.8086H46.9961C48.1836 46.8086 49.0977 46.5781 49.7383 46.1172C50.3867 45.6484 50.7109 44.9688 50.7109 44.0781C50.7109 43.1953 50.3945 42.4961 49.7617 41.9805C49.1367 41.4648 48.2461 41.207 47.0898 41.207H43.0117V46.8086ZM43.0117 39.0625H46.9258C47.918 39.0625 48.6914 38.8242 49.2461 38.3477C49.8086 37.8711 50.0898 37.2227 50.0898 36.4023C50.0898 35.582 49.8086 34.9336 49.2461 34.457C48.6914 33.9727 47.918 33.7305 46.9258 33.7305H43.0117V39.0625Z" fill="#171717"/>
</svg>
