<svg width="80" height="80" viewBox="0 0 80 80" fill="none" xmlns="http://www.w3.org/2000/svg">
<path d="M0 40C0 17.9086 17.9086 0 40 0C62.0914 0 80 17.9086 80 40C80 62.0914 62.0914 80 40 80C17.9086 80 0 62.0914 0 40Z" fill="#EBEBEB"/>
<path d="M24.9414 49L20.207 31.5391H22.9141L25.4805 41.6992C25.668 42.4492 25.8438 43.2031 26.0078 43.9609C26.1719 44.7109 26.332 45.4648 26.4883 46.2227C26.6445 45.4648 26.8086 44.7109 26.9805 43.9609C27.1523 43.2031 27.3359 42.4492 27.5312 41.6992L30.1797 31.5391H33.0273L35.6523 41.6992C36.0273 43.1836 36.375 44.6719 36.6953 46.1641C36.8516 45.4219 37.0117 44.6797 37.1758 43.9375C37.3477 43.1875 37.5234 42.4414 37.7031 41.6992L40.2695 31.5391H42.9883L38.2305 49H35.2539L32.3828 38.3242C32.2422 37.7852 32.1055 37.2344 31.9727 36.6719C31.8477 36.1016 31.7188 35.5195 31.5859 34.9258C31.4609 35.5195 31.3359 36.1016 31.2109 36.6719C31.0859 37.2344 30.9492 37.7852 30.8008 38.3242L27.9531 49H24.9414ZM51.707 49.2812C50.1055 49.2812 48.6914 48.9023 47.4648 48.1445C46.2383 47.3867 45.2812 46.332 44.5938 44.9805C43.9062 43.6289 43.5625 42.0625 43.5625 40.2812C43.5625 38.4844 43.9062 36.9102 44.5938 35.5586C45.2812 34.207 46.2344 33.1523 47.4531 32.3945C48.6797 31.6367 50.0977 31.2578 51.707 31.2578C52.9805 31.2578 54.1328 31.5078 55.1641 32.0078C56.2031 32.5078 57.0625 33.2148 57.7422 34.1289C58.4219 35.0352 58.8633 36.1094 59.0664 37.3516H56.418C56.1602 36.1641 55.6094 35.25 54.7656 34.6094C53.9297 33.9609 52.918 33.6367 51.7305 33.6367C50.582 33.6367 49.5938 33.9141 48.7656 34.4688C47.9375 35.0234 47.2969 35.8008 46.8438 36.8008C46.3984 37.8008 46.1758 38.9609 46.1758 40.2812C46.1758 41.6016 46.3984 42.7578 46.8438 43.75C47.2891 44.7422 47.9258 45.5156 48.7539 46.0703C49.5898 46.625 50.582 46.9023 51.7305 46.9023C52.9102 46.9023 53.918 46.582 54.7539 45.9414C55.5977 45.3008 56.1562 44.3906 56.4297 43.2109H59.0664C58.8633 44.4453 58.4219 45.5195 57.7422 46.4336C57.0625 47.3398 56.2031 48.043 55.1641 48.543C54.1328 49.0352 52.9805 49.2812 51.707 49.2812Z" fill="#171717"/>
</svg>
