<svg width="80" height="80" viewBox="0 0 80 80" fill="none" xmlns="http://www.w3.org/2000/svg">
<path d="M0 40C0 17.9086 17.9086 0 40 0C62.0914 0 80 17.9086 80 40C80 62.0914 62.0914 80 40 80C17.9086 80 0 62.0914 0 40Z" fill="#C0EAFF"/>
<path d="M24.4375 49V31.5391H27.3203L33.9883 42.0977C34.1914 42.4258 34.4688 42.8906 34.8203 43.4922C35.1719 44.0938 35.5234 44.7031 35.875 45.3203C35.8516 44.6875 35.832 44.0469 35.8164 43.3984C35.8086 42.7422 35.8047 42.2539 35.8047 41.9336V31.5391H38.418V49H35.5117L29.5469 39.5664C29.3047 39.1836 28.9531 38.6133 28.4922 37.8555C28.0391 37.0898 27.5234 36.2109 26.9453 35.2188C26.9844 36.2422 27.0078 37.125 27.0156 37.8672C27.0312 38.6016 27.0391 39.1641 27.0391 39.5547V49H24.4375ZM41.5938 49V31.5391H44.4766L51.1445 42.0977C51.3477 42.4258 51.625 42.8906 51.9766 43.4922C52.3281 44.0938 52.6797 44.7031 53.0312 45.3203C53.0078 44.6875 52.9883 44.0469 52.9727 43.3984C52.9648 42.7422 52.9609 42.2539 52.9609 41.9336V31.5391H55.5742V49H52.668L46.7031 39.5664C46.4609 39.1836 46.1094 38.6133 45.6484 37.8555C45.1953 37.0898 44.6797 36.2109 44.1016 35.2188C44.1406 36.2422 44.1641 37.125 44.1719 37.8672C44.1875 38.6016 44.1953 39.1641 44.1953 39.5547V49H41.5938Z" fill="#124B68"/>
</svg>
