<svg width="80" height="80" viewBox="0 0 80 80" fill="none" xmlns="http://www.w3.org/2000/svg">
<path d="M0 40C0 17.9086 17.9086 0 40 0C62.0914 0 80 17.9086 80 40C80 62.0914 62.0914 80 40 80C17.9086 80 0 62.0914 0 40Z" fill="#C0D5FF"/>
<path d="M24.6367 49V31.5391H27.2383V46.7148H35.5V49H24.6367ZM37.668 49V31.5391H41.3359L45.25 41.7695C45.4062 42.2148 45.6094 42.8008 45.8594 43.5273C46.1094 44.2461 46.3359 44.9102 46.5391 45.5195C46.7344 44.9102 46.957 44.2461 47.207 43.5273C47.457 42.8008 47.6602 42.2148 47.8164 41.7695L51.6719 31.5391H55.3516V49H52.7969V39.4844C52.7969 38.8594 52.8047 38.1328 52.8203 37.3047C52.8359 36.4688 52.8555 35.6367 52.8789 34.8086C52.5586 35.7539 52.2539 36.6445 51.9648 37.4805C51.6836 38.3164 51.4492 38.9844 51.2617 39.4844L47.582 49H45.4492L41.7344 39.4844C41.5547 39.0078 41.3242 38.3789 41.043 37.5977C40.7695 36.8086 40.4727 35.9609 40.1523 35.0547C40.1758 35.8516 40.1953 36.6406 40.2109 37.4219C40.2266 38.2031 40.2344 38.8906 40.2344 39.4844V49H37.668Z" fill="#122368"/>
</svg>
