<svg width="80" height="80" viewBox="0 0 80 80" fill="none" xmlns="http://www.w3.org/2000/svg">
<path d="M0 40C0 17.9086 17.9086 0 40 0C62.0914 0 80 17.9086 80 40C80 62.0914 62.0914 80 40 80C17.9086 80 0 62.0914 0 40Z" fill="#CAC0FF"/>
<path d="M24.625 49V31.5391H28.293L32.207 41.7695C32.3633 42.2148 32.5664 42.8008 32.8164 43.5273C33.0664 44.2461 33.293 44.9102 33.4961 45.5195C33.6914 44.9102 33.9141 44.2461 34.1641 43.5273C34.4141 42.8008 34.6172 42.2148 34.7734 41.7695L38.6289 31.5391H42.3086V49H39.7539V39.4844C39.7539 38.8594 39.7617 38.1328 39.7773 37.3047C39.793 36.4688 39.8125 35.6367 39.8359 34.8086C39.5156 35.7539 39.2109 36.6445 38.9219 37.4805C38.6406 38.3164 38.4062 38.9844 38.2188 39.4844L34.5391 49H32.4062L28.6914 39.4844C28.5117 39.0078 28.2812 38.3789 28 37.5977C27.7266 36.8086 27.4297 35.9609 27.1094 35.0547C27.1328 35.8516 27.1523 36.6406 27.168 37.4219C27.1836 38.2031 27.1914 38.8906 27.1914 39.4844V49H24.625ZM50.0664 49.2461C48.4648 49.2461 47.1758 48.7852 46.1992 47.8633C45.2227 46.9414 44.7344 45.6289 44.7344 43.9258V42.9062H47.2656V43.9375C47.2656 44.9219 47.5195 45.6758 48.0273 46.1992C48.5352 46.7227 49.2109 46.9844 50.0547 46.9844C50.8984 46.9844 51.5742 46.7227 52.082 46.1992C52.5898 45.6758 52.8438 44.9219 52.8438 43.9375V31.5391H55.457V43.9492C55.457 45.6523 54.9609 46.9609 53.9688 47.875C52.9844 48.7891 51.6836 49.2461 50.0664 49.2461Z" fill="#351A75"/>
</svg>
