<svg width="32" height="32" viewBox="0 0 32 32" fill="none" xmlns="http://www.w3.org/2000/svg">
<path d="M29.5811 19.3886C27.7111 26.8895 20.1139 31.4544 12.6121 29.584C5.1134 27.7139 0.548494 20.1163 2.41933 12.616C4.28852 5.11422 11.8857 0.548964 19.3852 2.41897C26.8865 4.28899 31.4511 11.8875 29.5809 19.3888L29.581 19.3886H29.5811Z" fill="#F7931A"/>
<path d="M22.174 14.0067C22.4527 12.1434 21.0341 11.1418 19.0942 10.4736L19.7235 7.94961L18.1871 7.56676L17.5745 10.0243C17.1706 9.92358 16.7558 9.82865 16.3435 9.73455L16.9605 7.26077L15.4251 6.87793L14.7954 9.40112C14.4612 9.32501 14.1329 9.2498 13.8144 9.17055L13.8161 9.16261L11.6974 8.63351L11.2886 10.2745C11.2886 10.2745 12.4286 10.5358 12.4045 10.5519C13.0267 10.7072 13.1392 11.1191 13.1205 11.4455L12.4037 14.3209C12.4466 14.3318 12.5021 14.3476 12.5634 14.3722C12.5122 14.3595 12.4576 14.3456 12.401 14.332L11.3963 18.3601C11.3203 18.5491 11.1273 18.8328 10.6923 18.7251C10.7077 18.7474 9.57556 18.4464 9.57556 18.4464L8.81274 20.2051L10.8122 20.7036C11.1841 20.7969 11.5486 20.8945 11.9076 20.9862L11.2718 23.5392L12.8065 23.922L13.4361 21.3962C13.8554 21.51 14.2622 21.615 14.6605 21.7139L14.033 24.2279L15.5695 24.6107L16.2053 22.0626C18.8252 22.5584 20.7952 22.3585 21.6244 19.9887C22.2926 18.0808 21.5912 16.9803 20.2128 16.2627C21.2167 16.0312 21.9729 15.3709 22.1745 14.0069L22.174 14.0065L22.174 14.0067ZM18.6636 18.9292C18.1887 20.8371 14.9764 19.8057 13.9349 19.5471L14.7786 16.1649C15.82 16.4249 19.1598 16.9394 18.6636 18.9292H18.6636ZM19.1387 13.979C18.7056 15.7145 16.0319 14.8328 15.1646 14.6166L15.9295 11.5491C16.7968 11.7653 19.5899 12.1688 19.1389 13.979H19.1387Z" fill="white"/>
</svg>
