<svg width="32" height="32" viewBox="0 0 32 32" fill="none" xmlns="http://www.w3.org/2000/svg">
<path d="M25.246 7.45168C25.2267 7.31087 25.1036 7.23305 25.0018 7.2245C24.9002 7.21595 22.7499 7.05647 22.7499 7.05647C22.7499 7.05647 21.2566 5.5726 21.0928 5.4084C20.9287 5.2442 20.6084 5.29413 20.4842 5.33079C20.4657 5.33619 20.1579 5.43134 19.6484 5.58902C19.1495 4.15238 18.2692 2.83202 16.7203 2.83202C16.6776 2.83202 16.6336 2.83382 16.5895 2.8363C16.1491 2.25327 15.6034 2 15.1321 2C11.5243 2 9.80057 6.51416 9.26008 8.80825C7.85819 9.24304 6.86218 9.5521 6.73498 9.59213C5.95245 9.83776 5.92773 9.8625 5.82503 10.6005C5.7475 11.1592 3.69995 27.008 3.69995 27.008L19.6549 30L28.3 28.1281C28.3 28.1281 25.2652 7.59249 25.246 7.45168ZM18.7665 5.86208C18.3658 5.98625 17.9103 6.12728 17.4166 6.28023C17.417 6.18509 17.4175 6.09129 17.4175 5.98895C17.4175 5.09597 17.2936 4.37708 17.095 3.8071C17.893 3.90742 18.4245 4.81615 18.7665 5.86208ZM16.105 3.98413C16.3268 4.54061 16.4711 5.33912 16.4711 6.41677C16.4711 6.47188 16.4707 6.52226 16.4702 6.57332C15.5922 6.84549 14.6382 7.14105 13.6819 7.43751C14.2188 5.36363 15.2252 4.36201 16.105 3.98413ZM15.033 2.96856C15.1888 2.96856 15.3456 3.02142 15.4958 3.12489C14.3395 3.66945 13.1001 5.04108 12.5767 7.78008C11.8117 8.01716 11.064 8.24884 10.3727 8.4632C10.9858 6.37403 12.4416 2.96856 15.033 2.96856Z" fill="#95BF46"/>
<path d="M25.0017 7.22478C24.9001 7.21623 22.7499 7.05676 22.7499 7.05676C22.7499 7.05676 21.2565 5.57288 21.0927 5.40868C21.0314 5.3475 20.9487 5.31623 20.8621 5.30273L19.6558 30.0001L28.2999 28.1284C28.2999 28.1284 25.2651 7.59277 25.246 7.45196C25.2267 7.31115 25.1035 7.23333 25.0017 7.22478Z" fill="#5E8E3E"/>
<path d="M16.7205 12.0056L15.6546 15.1791C15.6546 15.1791 14.7206 14.6802 13.5758 14.6802C11.8975 14.6802 11.813 15.7345 11.813 16.0001C11.813 17.4496 15.5881 18.0049 15.5881 21.4001C15.5881 24.0711 13.8954 25.7912 11.613 25.7912C8.87417 25.7912 7.47363 24.0851 7.47363 24.0851L8.20694 21.6601C8.20694 21.6601 9.64658 22.8972 10.8615 22.8972C11.6552 22.8972 11.9782 22.2717 11.9782 21.8146C11.9782 19.9238 8.88114 19.8395 8.88114 16.7327C8.88114 14.1179 10.7563 11.5874 14.5415 11.5874C16 11.5874 16.7205 12.0056 16.7205 12.0056Z" fill="white"/>
</svg>
