<svg width="36" height="36" viewBox="0 0 36 36" fill="none" xmlns="http://www.w3.org/2000/svg">
<g filter="url(#filter0_d_245_18734)">
<circle cx="18" cy="16" r="14" fill="white"/>
<path d="M6 16C6 9.37258 11.3726 4 18 4C24.6274 4 30 9.37258 30 16C30 22.6274 24.6274 28 18 28C11.3726 28 6 22.6274 6 16Z" fill="#7D52F4"/>
<path d="M20.4164 7.15879L18.5747 6.66699L17.0227 12.4395L15.6215 7.22804L13.7798 7.71984L15.2937 13.3504L11.523 9.59251L10.1748 10.9361L14.3108 15.0581L9.16007 13.6827L8.6666 15.5181L14.2944 17.0209C14.23 16.7439 14.1959 16.4553 14.1959 16.1588C14.1959 14.06 15.9031 12.3585 18.0092 12.3585C20.1152 12.3585 21.8225 14.06 21.8225 16.1588C21.8225 16.4534 21.7888 16.7402 21.7252 17.0156L26.8398 18.3814L27.3333 16.546L21.6831 15.0372L26.8341 13.6616L26.3406 11.8262L20.6907 13.3349L24.4614 9.57709L23.1132 8.23346L19.0346 12.2982L20.4164 7.15879Z" fill="url(#paint0_linear_245_18734)" fill-opacity="0.88"/>
<path d="M21.7202 17.0371C21.5623 17.7024 21.2289 18.3 20.7716 18.7789L24.4769 22.4717L25.8251 21.128L21.7202 17.0371Z" fill="url(#paint1_linear_245_18734)" fill-opacity="0.88"/>
<path d="M20.7342 18.8174C20.2712 19.2886 19.6862 19.6402 19.0302 19.8214L20.3785 24.8362L22.2202 24.3444L20.7342 18.8174Z" fill="url(#paint2_linear_245_18734)" fill-opacity="0.88"/>
<path d="M18.9614 19.8398C18.6571 19.9178 18.3381 19.9592 18.0093 19.9592C17.6571 19.9592 17.316 19.9116 16.9922 19.8225L15.6427 24.8419L17.4843 25.3337L18.9614 19.8398Z" fill="url(#paint3_linear_245_18734)" fill-opacity="0.88"/>
<path d="M16.9271 19.8041C16.2811 19.6139 15.7065 19.2578 15.253 18.7853L11.5386 22.4871L12.8868 23.8307L16.9271 19.8041Z" fill="url(#paint4_linear_245_18734)" fill-opacity="0.88"/>
<path d="M15.2219 18.7525C14.7762 18.277 14.4516 17.6873 14.2971 17.0323L9.16572 18.4026L9.65919 20.238L15.2219 18.7525Z" fill="url(#paint5_linear_245_18734)" fill-opacity="0.88"/>
</g>
<defs>
<filter id="filter0_d_245_18734" x="-2" y="-2" width="40" height="40" filterUnits="userSpaceOnUse" color-interpolation-filters="sRGB">
<feFlood flood-opacity="0" result="BackgroundImageFix"/>
<feColorMatrix in="SourceAlpha" type="matrix" values="0 0 0 0 0 0 0 0 0 0 0 0 0 0 0 0 0 0 127 0" result="hardAlpha"/>
<feOffset dy="2"/>
<feGaussianBlur stdDeviation="2"/>
<feColorMatrix type="matrix" values="0 0 0 0 0.105882 0 0 0 0 0.109804 0 0 0 0 0.113725 0 0 0 0.04 0"/>
<feBlend mode="normal" in2="BackgroundImageFix" result="effect1_dropShadow_245_18734"/>
<feBlend mode="normal" in="SourceGraphic" in2="effect1_dropShadow_245_18734" result="shape"/>
</filter>
<linearGradient id="paint0_linear_245_18734" x1="17.9999" y1="6.66699" x2="17.9999" y2="34.9723" gradientUnits="userSpaceOnUse">
<stop offset="0.313079" stop-color="white"/>
<stop offset="1" stop-color="white" stop-opacity="0"/>
</linearGradient>
<linearGradient id="paint1_linear_245_18734" x1="17.9999" y1="6.66699" x2="17.9999" y2="34.9723" gradientUnits="userSpaceOnUse">
<stop offset="0.313079" stop-color="white"/>
<stop offset="1" stop-color="white" stop-opacity="0"/>
</linearGradient>
<linearGradient id="paint2_linear_245_18734" x1="17.9999" y1="6.66699" x2="17.9999" y2="34.9723" gradientUnits="userSpaceOnUse">
<stop offset="0.313079" stop-color="white"/>
<stop offset="1" stop-color="white" stop-opacity="0"/>
</linearGradient>
<linearGradient id="paint3_linear_245_18734" x1="17.9999" y1="6.66699" x2="17.9999" y2="34.9723" gradientUnits="userSpaceOnUse">
<stop offset="0.313079" stop-color="white"/>
<stop offset="1" stop-color="white" stop-opacity="0"/>
</linearGradient>
<linearGradient id="paint4_linear_245_18734" x1="17.9999" y1="6.66699" x2="17.9999" y2="34.9723" gradientUnits="userSpaceOnUse">
<stop offset="0.313079" stop-color="white"/>
<stop offset="1" stop-color="white" stop-opacity="0"/>
</linearGradient>
<linearGradient id="paint5_linear_245_18734" x1="17.9999" y1="6.66699" x2="17.9999" y2="34.9723" gradientUnits="userSpaceOnUse">
<stop offset="0.313079" stop-color="white"/>
<stop offset="1" stop-color="white" stop-opacity="0"/>
</linearGradient>
</defs>
</svg>
