<svg preserveAspectRatio="none" width="100%" height="100%" overflow="visible" style="display: block;" viewBox="0 0 132.046 132.046" fill="none" xmlns="http://www.w3.org/2000/svg">
<path id="Inner Star" d="M63.051 1.32302C64.6398 -0.441005 67.4065 -0.441006 68.9953 1.32302L71.5482 4.15739C72.8646 5.61903 75.0484 5.90653 76.6984 4.83543L79.8979 2.75837C81.8891 1.46567 84.5615 2.18174 85.6396 4.29687L87.3719 7.6954C88.2653 9.44796 90.3002 10.2909 92.1712 9.68331L95.7992 8.5051C98.0572 7.77183 100.453 9.15517 100.947 11.4773L101.741 15.2083C102.15 17.1324 103.898 18.4733 105.862 18.3706L109.671 18.1716C112.042 18.0477 113.999 20.0041 113.875 22.3749L113.676 26.1842C113.573 28.1487 114.914 29.8961 116.838 30.3054L120.569 31.0991C122.891 31.5931 124.274 33.9891 123.541 36.247L122.363 39.8751C121.755 41.746 122.598 43.781 124.351 44.6743L127.749 46.4066C129.865 47.4847 130.581 50.1571 129.288 52.1484L127.211 55.3479C126.14 56.9978 126.427 59.1816 127.889 60.4981L130.723 63.051C132.487 64.6398 132.487 67.4065 130.723 68.9953L127.889 71.5482C126.427 72.8646 126.14 75.0484 127.211 76.6984L129.288 79.8979C130.581 81.8891 129.865 84.5615 127.749 85.6396L124.351 87.3719C122.598 88.2653 121.755 90.3002 122.363 92.1712L123.541 95.7992C124.274 98.0572 122.891 100.453 120.569 100.947L116.838 101.741C114.914 102.15 113.573 103.898 113.676 105.862L113.875 109.671C113.999 112.042 112.042 113.999 109.671 113.875L105.862 113.676C103.898 113.573 102.15 114.914 101.741 116.838L100.947 120.569C100.453 122.891 98.0572 124.274 95.7992 123.541L92.1712 122.363C90.3002 121.755 88.2653 122.598 87.3719 124.351L85.6396 127.749C84.5615 129.865 81.8891 130.581 79.8979 129.288L76.6984 127.211C75.0485 126.14 72.8646 126.427 71.5482 127.889L68.9953 130.723C67.4065 132.487 64.6398 132.487 63.051 130.723L60.4981 127.889C59.1816 126.427 56.9978 126.14 55.3479 127.211L52.1484 129.288C50.1571 130.581 47.4847 129.865 46.4066 127.749L44.6743 124.351C43.781 122.598 41.746 121.755 39.8751 122.363L36.247 123.541C33.9891 124.274 31.5931 122.891 31.0991 120.569L30.3054 116.838C29.8961 114.914 28.1487 113.573 26.1842 113.676L22.3749 113.875C20.0041 113.999 18.0477 112.042 18.1716 109.671L18.3706 105.862C18.4733 103.898 17.1324 102.15 15.2084 101.741L11.4773 100.947C9.15517 100.453 7.77183 98.0572 8.5051 95.7992L9.68331 92.1712C10.2909 90.3002 9.44797 88.2653 7.69541 87.3719L4.29687 85.6396C2.18174 84.5615 1.46567 81.8891 2.75837 79.8979L4.83543 76.6984C5.90653 75.0485 5.61903 72.8646 4.15739 71.5482L1.32302 68.9953C-0.441004 67.4065 -0.441007 64.6398 1.32302 63.051L4.15739 60.4981C5.61903 59.1816 5.90653 56.9978 4.83543 55.3479L2.75837 52.1484C1.46567 50.1571 2.18174 47.4847 4.29687 46.4066L7.6954 44.6743C9.44796 43.781 10.2909 41.746 9.68331 39.8751L8.5051 36.247C7.77183 33.9891 9.15516 31.5931 11.4773 31.0991L15.2083 30.3054C17.1324 29.8961 18.4733 28.1487 18.3706 26.1842L18.1716 22.3749C18.0477 20.0041 20.0041 18.0477 22.3749 18.1716L26.1842 18.3706C28.1487 18.4733 29.8961 17.1324 30.3054 15.2084L31.0991 11.4773C31.5931 9.15517 33.9891 7.77183 36.247 8.5051L39.8751 9.68331C41.746 10.2909 43.781 9.44796 44.6743 7.6954L46.4066 4.29687C47.4847 2.18174 50.1571 1.46567 52.1484 2.75837L55.3479 4.83543C56.9978 5.90653 59.1816 5.61903 60.4981 4.15739L63.051 1.32302Z" fill="var(--fill-0, #C0D5FF)"/>
</svg>
