<svg preserveAspectRatio="none" width="100%" height="100%" overflow="visible" style="display: block;" viewBox="0 0 144.046 144.046" fill="none" xmlns="http://www.w3.org/2000/svg">
<g id="Outer Star" filter="url(#filter0_d_0_269)">
<path d="M69.051 6.32302C70.6398 4.559 73.4065 4.55899 74.9953 6.32302L77.5482 9.15739C78.8646 10.619 81.0484 10.9065 82.6984 9.83543L85.8979 7.75837C87.8891 6.46567 90.5615 7.18174 91.6396 9.29687L93.3719 12.6954C94.2653 14.448 96.3002 15.2909 98.1712 14.6833L101.799 13.5051C104.057 12.7718 106.453 14.1552 106.947 16.4773L107.741 20.2083C108.15 22.1324 109.898 23.4733 111.862 23.3706L115.671 23.1716C118.042 23.0477 119.999 25.0041 119.875 27.3749L119.676 31.1842C119.573 33.1487 120.914 34.8961 122.838 35.3054L126.569 36.0991C128.891 36.5931 130.274 38.9891 129.541 41.247L128.363 44.8751C127.755 46.746 128.598 48.781 130.351 49.6743L133.749 51.4066C135.865 52.4847 136.581 55.1571 135.288 57.1484L133.211 60.3479C132.14 61.9978 132.427 64.1816 133.889 65.4981L136.723 68.051C138.487 69.6398 138.487 72.4065 136.723 73.9953L133.889 76.5482C132.427 77.8646 132.14 80.0484 133.211 81.6984L135.288 84.8979C136.581 86.8891 135.865 89.5615 133.749 90.6396L130.351 92.3719C128.598 93.2653 127.755 95.3002 128.363 97.1712L129.541 100.799C130.274 103.057 128.891 105.453 126.569 105.947L122.838 106.741C120.914 107.15 119.573 108.898 119.676 110.862L119.875 114.671C119.999 117.042 118.042 118.999 115.671 118.875L111.862 118.676C109.898 118.573 108.15 119.914 107.741 121.838L106.947 125.569C106.453 127.891 104.057 129.274 101.799 128.541L98.1712 127.363C96.3002 126.755 94.2653 127.598 93.3719 129.351L91.6396 132.749C90.5615 134.865 87.8891 135.581 85.8979 134.288L82.6984 132.211C81.0485 131.14 78.8646 131.427 77.5482 132.889L74.9953 135.723C73.4065 137.487 70.6398 137.487 69.051 135.723L66.4981 132.889C65.1816 131.427 62.9978 131.14 61.3479 132.211L58.1484 134.288C56.1571 135.581 53.4847 134.865 52.4066 132.749L50.6743 129.351C49.781 127.598 47.746 126.755 45.8751 127.363L42.247 128.541C39.9891 129.274 37.5931 127.891 37.0991 125.569L36.3054 121.838C35.8961 119.914 34.1487 118.573 32.1842 118.676L28.3749 118.875C26.0041 118.999 24.0477 117.042 24.1716 114.671L24.3706 110.862C24.4733 108.898 23.1324 107.15 21.2084 106.741L17.4773 105.947C15.1552 105.453 13.7718 103.057 14.5051 100.799L15.6833 97.1712C16.2909 95.3002 15.448 93.2653 13.6954 92.3719L10.2969 90.6396C8.18174 89.5615 7.46567 86.8891 8.75837 84.8979L10.8354 81.6984C11.9065 80.0485 11.619 77.8646 10.1574 76.5482L7.32302 73.9953C5.559 72.4065 5.55899 69.6398 7.32302 68.051L10.1574 65.4981C11.619 64.1816 11.9065 61.9978 10.8354 60.3479L8.75837 57.1484C7.46567 55.1571 8.18174 52.4847 10.2969 51.4066L13.6954 49.6743C15.448 48.781 16.2909 46.746 15.6833 44.8751L14.5051 41.247C13.7718 38.9891 15.1552 36.5931 17.4773 36.0991L21.2083 35.3054C23.1324 34.8961 24.4733 33.1487 24.3706 31.1842L24.1716 27.3749C24.0477 25.0041 26.0041 23.0477 28.3749 23.1716L32.1842 23.3706C34.1487 23.4733 35.8961 22.1324 36.3054 20.2084L37.0991 16.4773C37.5931 14.1552 39.9891 12.7718 42.247 13.5051L45.8751 14.6833C47.746 15.2909 49.781 14.448 50.6743 12.6954L52.4066 9.29687C53.4847 7.18174 56.1571 6.46567 58.1484 7.75837L61.3479 9.83543C62.9978 10.9065 65.1816 10.619 66.4981 9.15739L69.051 6.32302Z" fill="var(--fill-0, white)"/>
<path d="M67.5651 4.98406C69.9483 2.33853 74.0979 2.33853 76.4811 4.98406L79.0339 7.81902C79.6921 8.54978 80.7841 8.6933 81.6091 8.15789L84.8093 6.08074C87.796 4.14205 91.8044 5.21592 93.4216 8.38836L95.154 11.7868C95.6006 12.6631 96.6179 13.0847 97.5534 12.7809L101.181 11.6032C104.568 10.5033 108.162 12.5781 108.903 16.0612L109.697 19.7927C109.902 20.7544 110.775 21.4249 111.757 21.3737L115.567 21.1745C119.123 20.9887 122.058 23.923 121.872 27.4792L121.673 31.2887C121.621 32.2708 122.292 33.1445 123.254 33.3493L126.985 34.1432C130.468 34.8842 132.543 38.478 131.443 41.8649L130.265 45.4928C129.962 46.4283 130.383 47.4456 131.259 47.8923L134.658 49.6247C137.83 51.2419 138.904 55.2502 136.966 58.237L134.888 61.4372C134.353 62.2621 134.496 63.3542 135.227 64.0124L138.062 66.5651C140.708 68.9483 140.708 73.0979 138.062 75.4811L135.227 78.0339C134.496 78.6921 134.353 79.7841 134.888 80.6091L136.966 83.8093C138.904 86.796 137.83 90.8044 134.658 92.4216L131.259 94.154C130.383 94.6006 129.962 95.6179 130.265 96.5534L131.443 100.181C132.543 103.568 130.468 107.162 126.985 107.903L123.254 108.697C122.292 108.902 121.621 109.775 121.673 110.757L121.872 114.567C122.058 118.123 119.123 121.058 115.567 120.872L111.757 120.673C110.775 120.621 109.902 121.292 109.697 122.254L108.903 125.985C108.162 129.468 104.568 131.543 101.181 130.443L97.5534 129.265C96.6179 128.962 95.6006 129.383 95.154 130.259L93.4216 133.658C91.8044 136.83 87.796 137.904 84.8093 135.966L81.6091 133.888C80.7841 133.353 79.6921 133.496 79.0339 134.227L76.4811 137.062C74.0979 139.708 69.9483 139.708 67.5651 137.062L65.0124 134.227C64.3542 133.496 63.2621 133.353 62.4372 133.888L59.237 135.966C56.2502 137.904 52.2419 136.83 50.6247 133.658L48.8923 130.259C48.4456 129.383 47.4283 128.962 46.4928 129.265L42.8649 130.443C39.478 131.543 35.8842 129.468 35.1432 125.985L34.3493 122.254C34.1445 121.292 33.2708 120.621 32.2887 120.673L28.4792 120.872C24.923 121.058 21.9887 118.123 22.1745 114.567L22.3737 110.757C22.4249 109.775 21.7544 108.902 20.7927 108.697L17.0612 107.903C13.5781 107.162 11.5033 103.568 12.6032 100.181L13.7809 96.5534C14.0847 95.6179 13.6631 94.6006 12.7868 94.154L9.38836 92.4216C6.21593 90.8044 5.14204 86.796 7.08074 83.8093L9.15789 80.6091C9.6933 79.7841 9.54978 78.692 8.81902 78.0339L5.98406 75.4811C3.33853 73.0979 3.33853 68.9483 5.98406 66.5651L8.81902 64.0124C9.54978 63.3542 9.69329 62.2621 9.15789 61.4372L7.08074 58.237C5.14205 55.2502 6.21592 51.2419 9.38836 49.6247L12.7868 47.8923C13.6631 47.4456 14.0847 46.4283 13.7809 45.4928L12.6032 41.8649C11.5033 38.478 13.5781 34.8842 17.0612 34.1432L20.7927 33.3493C21.7544 33.1445 22.4249 32.2708 22.3737 31.2887L22.1745 27.4792C21.9887 23.923 24.923 20.9887 28.4792 21.1745L32.2887 21.3737C33.2708 21.4249 34.1445 20.7544 34.3493 19.7927L35.1432 16.0612C35.8842 12.5781 39.478 10.5033 42.8649 11.6032L46.4928 12.7809C47.4283 13.0847 48.4456 12.6631 48.8923 11.7868L50.6247 8.38836C52.2419 5.21592 56.2502 4.14204 59.237 6.08074L62.4372 8.15789C63.2621 8.69329 64.3542 8.54978 65.0124 7.81902L67.5651 4.98406Z" stroke="var(--stroke-0, white)" stroke-width="4"/>
</g>
<defs>
<filter id="filter0_d_0_269" x="0" y="0" width="144.046" height="144.046" filterUnits="userSpaceOnUse" color-interpolation-filters="sRGB">
<feFlood flood-opacity="0" result="BackgroundImageFix"/>
<feColorMatrix in="SourceAlpha" type="matrix" values="0 0 0 0 0 0 0 0 0 0 0 0 0 0 0 0 0 0 127 0" result="hardAlpha"/>
<feOffset dy="1"/>
<feGaussianBlur stdDeviation="1"/>
<feComposite in2="hardAlpha" operator="out"/>
<feColorMatrix type="matrix" values="0 0 0 0 0.0392157 0 0 0 0 0.0509804 0 0 0 0 0.0784314 0 0 0 0.03 0"/>
<feBlend mode="normal" in2="BackgroundImageFix" result="effect1_dropShadow_0_269"/>
<feBlend mode="normal" in="SourceGraphic" in2="effect1_dropShadow_0_269" result="shape"/>
</filter>
</defs>
</svg>
